<svg width="158" height="32" viewBox="0 0 158 32" fill="none" xmlns="http://www.w3.org/2000/svg">
<g clip-path="url(#clip0_494_55549)">
<path d="M12.416 0H16.3616V22.3264H12.416V20.5216C11.2544 22.0096 9.6032 22.7552 7.4624 22.7552C5.3216 22.7552 3.6448 21.9744 2.1856 20.416C0.7296 18.8544 0 16.944 0 14.6784C0 12.4128 0.7296 10.5056 2.1856 8.944C3.6448 7.3856 5.4016 6.6048 7.4624 6.6048C9.5232 6.6048 11.2544 7.3504 12.416 8.8384V0ZM5.152 17.7824C5.9584 18.5888 6.9728 18.992 8.1952 18.992C9.4176 18.992 10.4288 18.5888 11.2224 17.7824C12.016 16.976 12.416 15.9424 12.416 14.6784C12.416 13.4144 12.0192 12.3808 11.2224 11.5744C10.4288 10.768 9.4176 10.3648 8.1952 10.3648C6.9728 10.3648 5.9584 10.768 5.152 11.5744C4.3456 12.3808 3.9424 13.4144 3.9424 14.6784C3.9424 15.9424 4.3456 16.976 5.152 17.7824Z" fill="white"/>
<path d="M21.3152 4.864C20.6624 4.864 20.096 4.624 19.6192 4.144C19.1392 3.664 18.8992 3.1008 18.8992 2.448C18.8992 1.7952 19.1392 1.2256 19.6192 0.736004C20.0992 0.246404 20.6624 0.00320435 21.3152 0.00320435C21.968 0.00320435 22.5632 0.246404 23.0432 0.736004C23.5232 1.2256 23.7632 1.7952 23.7632 2.448C23.7632 3.1008 23.5232 3.6672 23.0432 4.144C22.5632 4.624 21.9872 4.864 21.3152 4.864ZM19.3568 22.3264V7.0336H23.3024V22.3232H19.3568V22.3264Z" fill="white"/>
<path d="M46.7905 4.864C46.1377 4.864 45.5713 4.624 45.0945 4.144C44.6145 3.664 44.3745 3.1008 44.3745 2.448C44.3745 1.7952 44.6145 1.2256 45.0945 0.736004C45.5745 0.246404 46.1377 0.00320435 46.7905 0.00320435C47.4433 0.00320435 48.0385 0.246404 48.5185 0.736004C48.9985 1.2256 49.2385 1.7952 49.2385 2.448C49.2385 3.1008 48.9985 3.6672 48.5185 4.144C48.0385 4.624 47.4625 4.864 46.7905 4.864ZM44.8321 22.3264V7.0336H48.7777V22.3232H44.8321V22.3264Z" fill="white"/>
<path d="M60.5215 10.8256H57.0655V17.1872C57.0655 17.7184 57.1967 18.1056 57.4623 18.3488C57.7279 18.592 58.1151 18.7328 58.6239 18.7616C59.1327 18.7936 59.7663 18.7872 60.5183 18.7456V22.3232C57.8079 22.6304 55.8943 22.3744 54.7839 21.5584C53.6735 20.7424 53.1167 19.2864 53.1167 17.184V10.8224H50.4575V7.03041H53.1167V3.94561L57.0623 2.75201V7.03361H60.5183V10.8256H60.5215Z" fill="white"/>
<path d="M73.8559 7.0336H77.8015V22.3232H73.8559V20.5184C72.6719 22.0064 71.0111 22.752 68.8703 22.752C66.7295 22.752 65.0815 21.9712 63.6255 20.4128C62.1663 18.8544 61.4399 16.9408 61.4399 14.6784C61.4399 12.416 62.1695 10.5056 63.6255 8.944C65.0815 7.3856 66.8319 6.6048 68.8703 6.6048C71.0111 6.6048 72.6719 7.3504 73.8559 8.8384V7.0336ZM66.5759 17.7824C67.3695 18.5888 68.3807 18.992 69.6031 18.992C70.8255 18.992 71.8399 18.5888 72.6463 17.7824C73.4527 16.976 73.8527 15.9424 73.8527 14.6784C73.8527 13.4144 73.4495 12.3808 72.6463 11.5744C71.8399 10.768 70.8255 10.3648 69.6031 10.3648C68.3807 10.3648 67.3695 10.768 66.5759 11.5744C65.7823 12.3808 65.3823 13.4144 65.3823 14.6784C65.3823 15.9424 65.7791 16.976 66.5759 17.7824Z" fill="white"/>
<path d="M80.7649 22.3264V0H84.7105V22.3264H80.7649Z" fill="white"/>
<path d="M101.501 6.6048C103.558 6.6048 105.318 7.3856 106.778 8.944C108.234 10.5024 108.963 12.416 108.963 14.6784C108.963 16.9408 108.234 18.8544 106.778 20.4128C105.318 21.9712 103.562 22.752 101.501 22.752C99.44 22.752 97.7088 22.0064 96.5472 20.5184V22.3232H92.6016V0H96.5472V8.8384C97.7088 7.3504 99.36 6.6048 101.501 6.6048ZM97.7376 17.7824C98.5344 18.5888 99.5424 18.992 100.765 18.992C101.987 18.992 103.002 18.5888 103.808 17.7824C104.614 16.976 105.018 15.9424 105.018 14.6784C105.018 13.4144 104.614 12.3808 103.808 11.5744C103.002 10.768 101.987 10.3648 100.765 10.3648C99.5424 10.3648 98.5312 10.768 97.7376 11.5744C96.944 12.3808 96.544 13.4144 96.544 14.6784C96.544 15.9424 96.9408 16.976 97.7376 17.7824Z" fill="white"/>
<path d="M122.755 7.0336H126.701V22.3232H122.755V20.5184C121.574 22.0064 119.91 22.752 117.77 22.752C115.629 22.752 113.981 21.9712 112.525 20.4128C111.066 18.8544 110.339 16.9408 110.339 14.6784C110.339 12.416 111.069 10.5056 112.525 8.944C113.981 7.3824 115.731 6.6048 117.77 6.6048C119.91 6.6048 121.571 7.3504 122.755 8.8384V7.0336ZM115.475 17.7824C116.272 18.5888 117.28 18.992 118.502 18.992C119.725 18.992 120.739 18.5888 121.546 17.7824C122.352 16.976 122.752 15.9424 122.752 14.6784C122.752 13.4144 122.349 12.3808 121.546 11.5744C120.739 10.768 119.725 10.3648 118.502 10.3648C117.28 10.3648 116.269 10.768 115.475 11.5744C114.682 12.3808 114.282 13.4144 114.282 14.6784C114.282 15.9424 114.678 16.976 115.475 17.7824Z" fill="white"/>
<path d="M133.184 11.376C133.184 11.7856 133.453 12.1152 133.994 12.3712C134.534 12.6272 135.19 12.8512 135.965 13.0432C136.739 13.2384 137.514 13.4816 138.288 13.776C139.062 14.0704 139.722 14.5664 140.259 15.2576C140.8 15.952 141.069 16.816 141.069 17.856C141.069 19.4272 140.483 20.6336 139.309 21.4784C138.138 22.3232 136.672 22.7488 134.922 22.7488C131.782 22.7488 129.642 21.536 128.499 19.1104L131.923 17.184C132.371 18.5088 133.37 19.1712 134.922 19.1712C136.33 19.1712 137.03 18.7328 137.03 17.856C137.03 17.4496 136.762 17.1168 136.221 16.8608C135.68 16.6048 135.024 16.3776 134.25 16.1728C133.475 15.968 132.701 15.7152 131.926 15.408C131.152 15.1008 130.493 14.6176 129.955 13.9552C129.414 13.2928 129.146 12.4608 129.146 11.4624C129.146 9.95519 129.699 8.76799 130.813 7.90079C131.923 7.03359 133.306 6.60159 134.957 6.60159C136.202 6.60159 137.331 6.88319 138.352 7.44319C139.373 8.00319 140.176 8.80319 140.768 9.84319L137.405 11.6768C136.915 10.6368 136.099 10.1184 134.957 10.1184C134.448 10.1184 134.022 10.2304 133.686 10.4544C133.35 10.6784 133.181 10.9856 133.181 11.3728L133.184 11.376Z" fill="white"/>
<path d="M146.119 16.3008C146.65 18.2176 148.087 19.1744 150.429 19.1744C151.939 19.1744 153.079 18.6656 153.853 17.6448L157.034 19.4784C155.523 21.6608 153.303 22.752 150.368 22.752C147.84 22.752 145.811 21.9872 144.282 20.4576C142.752 18.928 141.987 17.0016 141.987 14.6784C141.987 12.3552 142.743 10.4544 144.25 8.9152C145.757 7.376 147.696 6.6048 150.061 6.6048C152.304 6.6048 154.154 7.3792 155.613 8.928C157.069 10.4768 157.799 12.3936 157.799 14.6784C157.799 15.1872 157.747 15.728 157.645 16.3008H146.115H146.119ZM146.058 13.2416H153.856C153.632 12.2016 153.168 11.4272 152.464 10.9184C151.76 10.4096 150.96 10.1536 150.064 10.1536C149.005 10.1536 148.128 10.4224 147.434 10.9632C146.739 11.504 146.282 12.2624 146.058 13.2416Z" fill="white"/>
<path d="M39.7151 9.49441C38.7359 8.52161 37.6255 7.83361 36.3903 7.44001C36.3231 7.42081 36.2591 7.39841 36.1951 7.37921C35.6927 7.23201 35.1679 7.13281 34.6239 7.07841C34.5535 7.07201 34.4863 7.06561 34.4191 7.06241C34.4063 7.06241 34.3935 7.06241 34.3807 7.06241C34.3071 7.05601 34.2303 7.05281 34.1567 7.04961C34.1023 7.04961 34.0511 7.04321 33.9967 7.04321C33.9615 7.04321 33.9263 7.04321 33.8911 7.04321C33.8175 7.04321 33.7407 7.04321 33.6671 7.04321C33.5935 7.04321 33.5167 7.04321 33.4431 7.04321C32.3391 7.06561 31.3151 7.27041 30.3743 7.65441C30.3743 7.65441 30.3679 7.65441 30.3647 7.65761C29.3631 8.06721 28.4543 8.68161 27.6383 9.49761C25.9999 11.136 25.1775 13.1456 25.1775 15.5264C25.1775 17.9072 25.9967 19.9168 27.6383 21.5552C29.2799 23.1936 31.2895 24.016 33.6671 24.016C36.0447 24.016 38.0607 23.1968 39.7119 21.5552C41.3631 19.9136 42.1887 17.904 42.1887 15.5264C42.1887 13.1488 41.3631 11.136 39.7119 9.49761L39.7151 9.49441ZM36.7871 18.7072C35.9519 19.5424 34.9119 19.9616 33.6703 19.9616C32.4287 19.9616 31.3919 19.5456 30.5663 18.7072C29.7407 17.872 29.3279 16.8096 29.3279 15.5232C29.3279 14.2368 29.7375 13.1776 30.5663 12.3392C31.3919 11.504 32.4255 11.0848 33.6703 11.0848C34.9151 11.0848 35.9519 11.504 36.7871 12.3392C37.6223 13.1744 38.0415 14.2368 38.0415 15.5232C38.0415 16.8096 37.6223 17.872 36.7871 18.7072Z" fill="white"/>
<path d="M37.7855 24.0128C37.7855 25.2256 37.3919 26.2208 36.6079 27.008C35.8175 27.7952 34.8383 28.192 33.6703 28.192C32.5023 28.192 31.5263 27.7952 30.7519 27.008C29.9839 26.2304 29.5967 25.2448 29.5871 24.0448L25.6831 24.0768C25.6959 26.2912 26.4703 28.1568 27.9999 29.6864C29.5455 31.2256 31.4335 31.9968 33.6703 31.9968C35.9071 31.9968 37.8079 31.2256 39.3599 29.6864C40.9119 28.1408 41.6895 26.2528 41.6895 24.0096H37.7855V24.0128Z" fill="white"/>
</g>
<defs>
<clipPath id="clip0_494_55549">
<rect width="157.802" height="32" fill="white"/>
</clipPath>
</defs>
</svg>
