<svg width="133" height="94" viewBox="0 0 133 94" fill="none" xmlns="http://www.w3.org/2000/svg">
<path d="M10.4975 67.0455H13.8189V85.8494H10.4975V84.3298C9.51837 85.5831 8.12796 86.2098 6.32629 86.2098C4.52462 86.2098 3.11071 85.5518 1.88087 84.2397C0.651039 82.9276 0.0400391 81.3139 0.0400391 79.4104C0.0400391 77.5069 0.654956 75.8933 1.88087 74.5812C3.10679 73.2691 4.59121 72.6111 6.32629 72.6111C8.06137 72.6111 9.52229 73.2378 10.4975 74.4911V67.0455ZM4.37971 82.0268C5.05729 82.7043 5.91112 83.0451 6.94121 83.0451C7.97129 83.0451 8.82121 82.7043 9.49096 82.0268C10.1607 81.3492 10.4975 80.4758 10.4975 79.4104C10.4975 78.3451 10.1607 77.4756 9.49096 76.798C8.82121 76.1204 7.97129 75.7797 6.94121 75.7797C5.91112 75.7797 5.05729 76.1204 4.37971 76.798C3.70212 77.4756 3.36137 78.349 3.36137 79.4104C3.36137 80.4718 3.70212 81.3453 4.37971 82.0268Z" fill="#0F0F0F"/>
<path d="M17.994 71.1423C17.4457 71.1423 16.9679 70.9387 16.5645 70.5353C16.161 70.1318 15.9574 69.654 15.9574 69.1057C15.9574 68.5573 16.161 68.0756 16.5645 67.6643C16.9679 67.2531 17.4457 67.0455 17.994 67.0455C18.5424 67.0455 19.0476 67.2531 19.451 67.6643C19.8545 68.0756 20.0581 68.5573 20.0581 69.1057C20.0581 69.654 19.8545 70.1318 19.451 70.5353C19.0476 70.9387 18.562 71.1423 17.994 71.1423ZM16.3451 85.8533V72.9753H19.6665V85.8533H16.3451Z" fill="#0F0F0F"/>
<path d="M39.4535 71.1423C38.9051 71.1423 38.4273 70.9387 38.0239 70.5353C37.6205 70.1318 37.4168 69.654 37.4168 69.1057C37.4168 68.5573 37.6205 68.0756 38.0239 67.6643C38.4273 67.2531 38.9051 67.0455 39.4535 67.0455C40.0018 67.0455 40.507 67.2531 40.9105 67.6643C41.3139 68.0756 41.5175 68.5573 41.5175 69.1057C41.5175 69.654 41.3139 70.1318 40.9105 70.5353C40.507 70.9387 40.0214 71.1423 39.4535 71.1423ZM37.8045 85.8533V72.9753H41.1259V85.8533H37.8045Z" fill="#0F0F0F"/>
<path d="M51.0194 76.1635H48.1093V81.5215C48.1093 81.968 48.219 82.2931 48.4422 82.5007C48.6655 82.7083 48.9905 82.8219 49.4214 82.8493C49.8522 82.8767 50.381 82.8728 51.0194 82.8375V85.8494C48.736 86.1079 47.1262 85.8925 46.1901 85.2071C45.254 84.5217 44.788 83.2919 44.788 81.5215V76.1635H42.5476V72.9714H44.788V70.3708L48.1093 69.3681V72.9754H51.0194V76.1674V76.1635Z" fill="#0F0F0F"/>
<path d="M62.2485 72.9714H65.5698V85.8494H62.2485V84.3298C61.2536 85.5831 59.8515 86.2098 58.0498 86.2098C56.2481 86.2098 54.8616 85.5518 53.6318 84.2397C52.402 82.9276 51.791 81.3139 51.791 79.4104C51.791 77.5069 52.4059 75.8933 53.6318 74.5812C54.8577 73.2691 56.3304 72.6111 58.0498 72.6111C59.8515 72.6111 61.2536 73.2378 62.2485 74.4911V72.9714ZM56.1189 82.0267C56.7886 82.7043 57.6385 83.0451 58.6686 83.0451C59.6987 83.0451 60.5525 82.7043 61.2301 82.0267C61.9077 81.3492 62.2485 80.4758 62.2485 79.4104C62.2485 78.3451 61.9077 77.4756 61.2301 76.798C60.5525 76.1204 59.6987 75.7797 58.6686 75.7797C57.6385 75.7797 56.7886 76.1204 56.1189 76.798C55.4491 77.4756 55.1162 78.349 55.1162 79.4104C55.1162 80.4718 55.4491 81.3452 56.1189 82.0267Z" fill="#0F0F0F"/>
<path d="M68.0725 85.8494V67.0455H71.3939V85.8494H68.0725Z" fill="#0F0F0F"/>
<path d="M85.537 72.6111C87.272 72.6111 88.7525 73.2691 89.9824 74.5812C91.2083 75.8933 91.8232 77.503 91.8232 79.4104C91.8232 81.3178 91.2083 82.9276 89.9824 84.2397C88.7525 85.5518 87.272 86.2098 85.537 86.2098C83.8019 86.2098 82.341 85.5831 81.3657 84.3298V85.8494H78.0444V67.0455H81.3657V74.4911C82.3449 73.2378 83.7353 72.6111 85.537 72.6111ZM82.3684 82.0268C83.0381 82.7043 83.888 83.0451 84.9181 83.0451C85.9482 83.0451 86.802 82.7043 87.4796 82.0268C88.1572 81.3492 88.498 80.4758 88.498 79.4104C88.498 78.3451 88.1572 77.4756 87.4796 76.798C86.802 76.1204 85.9482 75.7797 84.9181 75.7797C83.888 75.7797 83.0381 76.1204 82.3684 76.798C81.6986 77.4756 81.3657 78.349 81.3657 79.4104C81.3657 80.4718 81.7025 81.3453 82.3684 82.0268Z" fill="#0F0F0F"/>
<path d="M103.44 72.9714H106.761V85.8494H103.44V84.3298C102.445 85.5831 101.043 86.2098 99.2414 86.2098C97.4397 86.2098 96.0532 85.5518 94.8234 84.2397C93.5975 82.9276 92.9825 81.3139 92.9825 79.4104C92.9825 77.5069 93.5975 75.8933 94.8234 74.5812C96.0493 73.2691 97.5259 72.6111 99.2414 72.6111C101.043 72.6111 102.445 73.2378 103.44 74.4911V72.9714ZM97.3105 82.0267C97.9802 82.7043 98.8301 83.0451 99.8602 83.0451C100.89 83.0451 101.744 82.7043 102.422 82.0267C103.099 81.3492 103.44 80.4758 103.44 79.4104C103.44 78.3451 103.099 77.4756 102.422 76.798C101.744 76.1204 100.89 75.7797 99.8602 75.7797C98.8301 75.7797 97.9802 76.1204 97.3105 76.798C96.6407 77.4756 96.3078 78.349 96.3078 79.4104C96.3078 80.4718 96.6446 81.3452 97.3105 82.0267Z" fill="#0F0F0F"/>
<path d="M112.221 76.6296C112.221 76.9742 112.448 77.2523 112.903 77.4677C113.357 77.6832 113.913 77.8712 114.563 78.0357C115.217 78.2002 115.868 78.4038 116.522 78.6545C117.176 78.9052 117.728 79.3203 118.182 79.9039C118.637 80.4875 118.864 81.216 118.864 82.0933C118.864 83.4172 118.37 84.4316 117.383 85.1444C116.396 85.8572 115.163 86.2137 113.686 86.2137C111.042 86.2137 109.237 85.1914 108.277 83.1469L111.164 81.5254C111.54 82.6417 112.382 83.2017 113.69 83.2017C114.877 83.2017 115.468 82.8336 115.468 82.0933C115.468 81.7487 115.241 81.4706 114.787 81.2552C114.332 81.0397 113.776 80.8478 113.126 80.6755C112.472 80.5032 111.822 80.2877 111.168 80.0332C110.514 79.7747 109.961 79.3673 109.507 78.8112C109.053 78.255 108.825 77.5539 108.825 76.7118C108.825 75.4428 109.292 74.4402 110.228 73.7117C111.164 72.9832 112.327 72.615 113.717 72.615C114.763 72.615 115.719 72.85 116.577 73.3239C117.434 73.7978 118.112 74.4715 118.613 75.3449L115.781 76.892C115.37 76.0147 114.681 75.5799 113.721 75.5799C113.29 75.5799 112.934 75.6739 112.652 75.8619C112.37 76.0499 112.225 76.3084 112.225 76.6335L112.221 76.6296Z" fill="#0F0F0F"/>
<path d="M123.117 80.7773C123.564 82.391 124.774 83.1978 126.748 83.1978C128.021 83.1978 128.981 82.767 129.635 81.9093L132.314 83.4563C131.041 85.2933 129.173 86.2137 126.697 86.2137C124.567 86.2137 122.859 85.5713 121.57 84.2828C120.282 82.9942 119.639 81.3727 119.639 79.4143C119.639 77.456 120.274 75.8541 121.547 74.5577C122.816 73.2613 124.449 72.6111 126.443 72.6111C128.33 72.6111 129.889 73.2652 131.119 74.5694C132.345 75.8737 132.96 77.4873 132.96 79.4104C132.96 79.8413 132.917 80.2956 132.831 80.7773H123.117ZM123.066 78.2002H129.635C129.447 77.3228 129.055 76.6727 128.464 76.2418C127.872 75.811 127.199 75.5995 126.443 75.5995C125.55 75.5995 124.809 75.8267 124.226 76.281C123.642 76.7353 123.254 77.3777 123.066 78.2002Z" fill="#0F0F0F"/>
<path d="M33.4923 75.0433C32.6659 74.2247 31.7337 73.6451 30.6919 73.3122C30.637 73.2965 30.5822 73.2769 30.5274 73.2612C30.1044 73.1359 29.6618 73.0537 29.2035 73.0106C29.1448 73.0067 29.09 72.9988 29.0312 72.9949C29.0195 72.9949 29.0116 72.9949 28.9999 72.9949C28.9372 72.991 28.8745 72.9871 28.8119 72.9832C28.7688 72.9832 28.7218 72.9792 28.6787 72.9792C28.6513 72.9792 28.62 72.9792 28.5886 72.9792C28.526 72.9792 28.4633 72.9792 28.4006 72.9792C28.338 72.9792 28.2753 72.9792 28.2126 72.9792C27.2844 72.9988 26.4227 73.1712 25.6276 73.4962C25.6276 73.4962 25.6237 73.4962 25.6198 73.5002C24.7777 73.8448 24.01 74.3618 23.3207 75.0512C21.9381 76.4337 21.2488 78.1257 21.2488 80.1272C21.2488 82.1286 21.9381 83.8245 23.3207 85.2071C24.7033 86.5897 26.3953 87.279 28.4006 87.279C30.406 87.279 32.1019 86.5897 33.4923 85.2071C34.8827 83.8245 35.576 82.1325 35.576 80.1272C35.576 78.1218 34.8827 76.4298 33.4923 75.0512V75.0433ZM31.0287 82.8022C30.3237 83.5072 29.4503 83.8597 28.4006 83.8597C27.351 83.8597 26.4815 83.5072 25.7882 82.8022C25.091 82.0972 24.7464 81.2042 24.7464 80.1193C24.7464 79.0344 25.091 78.1414 25.7882 77.4403C26.4815 76.7353 27.3549 76.3828 28.4006 76.3828C29.4464 76.3828 30.3237 76.7353 31.0287 77.4403C31.7337 78.1453 32.0862 79.0383 32.0862 80.1193C32.0862 81.2003 31.7337 82.0972 31.0287 82.8022Z" fill="#0F0F0F"/>
<path d="M31.8669 87.2712C31.8669 88.2934 31.534 89.1316 30.872 89.7935C30.2062 90.4554 29.3837 90.7923 28.3967 90.7923C27.4097 90.7923 26.5911 90.4554 25.937 89.7935C25.2908 89.1394 24.9618 88.3091 24.954 87.2986L21.6679 87.326C21.6796 89.1903 22.3298 90.7609 23.6184 92.0534C24.9187 93.3498 26.5128 94 28.3967 94C30.2806 94 31.8825 93.3498 33.1907 92.0534C34.4989 90.7531 35.153 89.159 35.153 87.2712H31.8669Z" fill="#0F0F0F"/>
<path d="M53.0247 33.3504V26.7234H66.498V46.8277H46.3977V33.3504H53.0247Z" fill="#0F0F0F"/>
<path d="M86.6023 13.2501V26.7234H66.498V6.62311H79.9753V13.2501H86.6023Z" fill="#0F0F0F"/>
<path d="M53.0208 6.62311H46.3977V13.2462H53.0208V6.62311Z" fill="#0F0F0F"/>
<path d="M86.5984 40.2007H79.9753V46.8238H86.5984V40.2007Z" fill="#0F0F0F"/>
</svg>
