<svg width="475" height="519" viewBox="0 0 475 519" fill="none" xmlns="http://www.w3.org/2000/svg">
<path fill-rule="evenodd" clip-rule="evenodd" d="M257.638 214.444C256.893 214.444 256.284 213.84 256.284 213.101V185.693H302.551V213.101C302.551 213.84 301.942 214.444 301.197 214.444H257.638Z" fill="#E4EBF7"/>
<path fill-rule="evenodd" clip-rule="evenodd" d="M302.551 185.96H256.284V179.175C256.284 178.434 256.89 177.833 257.637 177.833H301.198C301.946 177.833 302.551 178.434 302.551 179.175V185.96Z" fill="#253368"/>
<path fill-rule="evenodd" clip-rule="evenodd" d="M266.779 195.471C266.779 196.51 265.93 197.351 264.883 197.351C263.836 197.351 262.987 196.51 262.987 195.471C262.987 194.433 263.836 193.591 264.883 193.591C265.93 193.591 266.779 194.433 266.779 195.471Z" fill="#597EF7"/>
<path fill-rule="evenodd" clip-rule="evenodd" d="M276.876 195.471C276.876 196.51 276.027 197.351 274.98 197.351C273.933 197.351 273.084 196.51 273.084 195.471C273.084 194.433 273.933 193.591 274.98 193.591C276.027 193.591 276.876 194.433 276.876 195.471Z" fill="#597EF7"/>
<path fill-rule="evenodd" clip-rule="evenodd" d="M287.993 195.471C287.993 197.069 286.687 198.364 285.076 198.364C283.466 198.364 282.16 197.069 282.16 195.471C282.16 193.874 283.466 192.579 285.076 192.579C286.687 192.579 287.993 193.874 287.993 195.471Z" fill="white"/>
<path fill-rule="evenodd" clip-rule="evenodd" d="M286.972 195.471C286.972 196.51 286.123 197.351 285.076 197.351C284.03 197.351 283.181 196.51 283.181 195.471C283.181 194.433 284.03 193.591 285.076 193.591C286.123 193.591 286.972 194.433 286.972 195.471Z" fill="#FF7946"/>
<path fill-rule="evenodd" clip-rule="evenodd" d="M297.069 195.471C297.069 196.51 296.22 197.351 295.173 197.351C294.126 197.351 293.277 196.51 293.277 195.471C293.277 194.433 294.126 193.591 295.173 193.591C296.22 193.591 297.069 194.433 297.069 195.471Z" fill="#597EF7"/>
<path fill-rule="evenodd" clip-rule="evenodd" d="M266.779 205.089C266.779 206.128 265.93 206.969 264.883 206.969C263.836 206.969 262.987 206.128 262.987 205.089C262.987 204.051 263.836 203.209 264.883 203.209C265.93 203.209 266.779 204.051 266.779 205.089Z" fill="#597EF7"/>
<path fill-rule="evenodd" clip-rule="evenodd" d="M276.876 205.089C276.876 206.128 276.027 206.969 274.98 206.969C273.933 206.969 273.084 206.128 273.084 205.089C273.084 204.051 273.933 203.209 274.98 203.209C276.027 203.209 276.876 204.051 276.876 205.089Z" fill="#597EF7"/>
<path fill-rule="evenodd" clip-rule="evenodd" d="M286.972 205.089C286.972 206.128 286.123 206.969 285.076 206.969C284.03 206.969 283.181 206.128 283.181 205.089C283.181 204.051 284.03 203.209 285.076 203.209C286.123 203.209 286.972 204.051 286.972 205.089Z" fill="#597EF7"/>
<path fill-rule="evenodd" clip-rule="evenodd" d="M297.069 205.089C297.069 206.128 296.22 206.969 295.173 206.969C294.126 206.969 293.277 206.128 293.277 205.089C293.277 204.051 294.126 203.209 295.173 203.209C296.22 203.209 297.069 204.051 297.069 205.089Z" fill="#597EF7"/>
<path fill-rule="evenodd" clip-rule="evenodd" d="M263.577 182.488C262.876 182.488 262.303 181.919 262.303 181.224V175.22C262.303 174.525 262.876 173.957 263.577 173.957C264.277 173.957 264.851 174.525 264.851 175.22V181.224C264.851 181.919 264.277 182.488 263.577 182.488Z" fill="#E4EBF7"/>
<path fill-rule="evenodd" clip-rule="evenodd" d="M295.207 182.488C294.506 182.488 293.933 181.919 293.933 181.224V175.22C293.933 174.525 294.506 173.957 295.207 173.957C295.907 173.957 296.481 174.525 296.481 175.22V181.224C296.481 181.919 295.907 182.488 295.207 182.488Z" fill="#E4EBF7"/>
<path fill-rule="evenodd" clip-rule="evenodd" d="M360.979 145.767H343.483C342.574 145.767 341.837 145.036 341.837 144.135V117.344C341.837 116.442 342.574 115.712 343.483 115.712H360.979C361.888 115.712 362.625 116.442 362.625 117.344V144.135C362.625 145.036 361.888 145.767 360.979 145.767Z" fill="#4E5C93"/>
<path fill-rule="evenodd" clip-rule="evenodd" d="M383.283 150.591H343.485C342.576 150.591 341.839 149.861 341.839 148.959V120.573C341.839 119.672 342.576 118.941 343.485 118.941H383.283C384.192 118.941 384.929 119.672 384.929 120.573V148.959C384.929 149.861 384.192 150.591 383.283 150.591Z" fill="#597EF7"/>
<path fill-rule="evenodd" clip-rule="evenodd" d="M372.028 132.207H352.873C352.646 132.207 352.462 132.024 352.462 131.799V131.125C352.462 130.9 352.646 130.717 352.873 130.717H372.028C372.256 130.717 372.44 130.9 372.44 131.125V131.799C372.44 132.024 372.256 132.207 372.028 132.207Z" fill="white"/>
<path fill-rule="evenodd" clip-rule="evenodd" d="M350.646 131.462C350.646 132.158 350.077 132.723 349.374 132.723C348.672 132.723 348.103 132.158 348.103 131.462C348.103 130.766 348.672 130.202 349.374 130.202C350.077 130.202 350.646 130.766 350.646 131.462Z" fill="white"/>
<path fill-rule="evenodd" clip-rule="evenodd" d="M378.253 137.094H352.873C352.646 137.094 352.462 136.911 352.462 136.686V136.012C352.462 135.787 352.646 135.604 352.873 135.604H378.253C378.48 135.604 378.665 135.787 378.665 136.012V136.686C378.665 136.911 378.48 137.094 378.253 137.094Z" fill="white"/>
<path fill-rule="evenodd" clip-rule="evenodd" d="M350.646 136.349C350.646 137.045 350.077 137.609 349.374 137.609C348.672 137.609 348.103 137.045 348.103 136.349C348.103 135.653 348.672 135.088 349.374 135.088C350.077 135.088 350.646 135.653 350.646 136.349Z" fill="white"/>
<path fill-rule="evenodd" clip-rule="evenodd" d="M366.262 141.98H352.873C352.646 141.98 352.462 141.798 352.462 141.572V140.899C352.462 140.673 352.646 140.491 352.873 140.491H366.262C366.489 140.491 366.674 140.673 366.674 140.899V141.572C366.674 141.798 366.489 141.98 366.262 141.98Z" fill="white"/>
<path fill-rule="evenodd" clip-rule="evenodd" d="M350.646 141.236C350.646 141.932 350.077 142.496 349.374 142.496C348.672 142.496 348.103 141.932 348.103 141.236C348.103 140.539 348.672 139.975 349.374 139.975C350.077 139.975 350.646 140.539 350.646 141.236Z" fill="white"/>
<path fill-rule="evenodd" clip-rule="evenodd" d="M28.5148 405.711C28.5148 405.711 27.4438 397.218 39.0106 393.396C50.5774 389.575 53.1478 391.592 53.1478 391.592L52.0768 394.989C52.0768 394.989 50.2561 403.482 41.9023 404.65C33.5485 405.817 30.3355 404.119 28.5148 405.711Z" fill="#7CB305"/>
<path d="M51.9076 391.992L52.2459 392.253L52.2179 392.287C52.2057 392.302 52.1906 392.321 52.1726 392.342L52.1191 392.405C52.0815 392.448 52.04 392.495 51.9947 392.546L51.96 392.584C51.725 392.842 51.4413 393.13 51.1083 393.439C50.1593 394.32 49.0042 395.2 47.6372 396.02C44.8921 397.669 41.6506 398.867 37.8955 399.425L37.7562 399.445C35.2286 399.809 33.2144 400.641 31.6542 401.8C30.9057 402.355 30.3117 402.949 29.8564 403.543C29.698 403.749 29.5683 403.94 29.4655 404.111L29.432 404.167C29.4162 404.195 29.4019 404.22 29.389 404.243L29.3531 404.311L29.351 404.316L28.9638 404.134L28.9756 404.11C29.0001 404.062 29.0404 403.988 29.0977 403.893C29.2085 403.709 29.3471 403.505 29.5155 403.285C29.9942 402.662 30.6161 402.04 31.3974 401.46C32.9916 400.276 35.0366 399.424 37.5836 399.042L37.6946 399.025C41.4506 398.485 44.6841 397.297 47.4153 395.657C48.756 394.852 49.8875 393.99 50.8155 393.129C51.1179 392.848 51.3778 392.587 51.5958 392.35L51.6418 392.3C51.7096 392.225 51.7687 392.158 51.8192 392.099L51.8758 392.031L51.9076 391.992Z" fill="#7CB305"/>
<path fill-rule="evenodd" clip-rule="evenodd" d="M51.7554 411.444H53.1477V391.592H51.7554L52.1305 397.692C52.2373 399.427 52.249 401.167 52.1657 402.904L51.7554 411.444Z" fill="#7CB305"/>
<path fill-rule="evenodd" clip-rule="evenodd" d="M30.3116 376.644C30.3116 376.644 34.5748 370.218 44.7313 374.29C54.8877 378.361 55.3967 381.612 55.3967 381.612L52.7283 382.929C52.7283 382.929 46.4881 387.684 40.0894 383.655C33.6909 379.625 32.4932 376.607 30.3116 376.644Z" fill="#7CB305"/>
<path fill-rule="evenodd" clip-rule="evenodd" d="M54.0045 416.965H55.0755L55.4952 381.92C55.5003 381.488 55.2131 381.105 54.7938 380.986L54.0045 380.763C54.0045 380.763 54.2735 384.019 54.2187 388.088C54.1664 391.981 53.7903 396.612 53.7903 400.043C53.7903 409.745 54.0045 416.965 54.0045 416.965Z" fill="#7CB305"/>
<path fill-rule="evenodd" clip-rule="evenodd" d="M44.7938 376.41C49.4156 379.966 54.1115 382.249 54.1115 382.249L52.7283 382.929C52.7283 382.929 46.4881 387.684 40.0894 383.655C33.6909 379.625 32.4932 376.607 30.3116 376.644C30.3116 376.644 37.6181 370.89 44.7938 376.41Z" fill="#5B8C00"/>
<path fill-rule="evenodd" clip-rule="evenodd" d="M80.432 391.843C80.432 391.843 77.5562 387.53 70.7049 390.263C63.8536 392.996 63.5102 395.178 63.5102 395.178L65.3103 396.062C65.3103 396.062 69.5197 399.254 73.8361 396.549C78.1525 393.845 78.9604 391.819 80.432 391.843Z" fill="#7CB305"/>
<path fill-rule="evenodd" clip-rule="evenodd" d="M64.4333 419.082H63.6932L63.4033 395.444C63.3997 395.153 63.5982 394.895 63.8879 394.815L64.4333 394.664C64.4333 394.664 64.2475 396.86 64.2853 399.605C64.3215 402.23 64.5813 405.354 64.5813 407.668C64.5813 414.212 64.4333 419.082 64.4333 419.082Z" fill="#7CB305"/>
<path fill-rule="evenodd" clip-rule="evenodd" d="M81.2316 368.469C81.2316 368.469 76.9685 362.043 66.812 366.115C56.6556 370.187 56.1465 373.438 56.1465 373.438L58.8149 374.755C58.8149 374.755 65.0551 379.51 71.4538 375.48C77.8524 371.451 79.0501 368.433 81.2316 368.469Z" fill="#7CB305"/>
<path fill-rule="evenodd" clip-rule="evenodd" d="M57.5388 410.17H56.4678L56.0482 373.745C56.043 373.313 56.3303 372.931 56.7496 372.812L57.5388 372.588C57.5388 372.588 57.2699 375.845 57.3246 379.914C57.377 383.806 57.753 388.438 57.753 391.868C57.753 401.571 57.5388 410.17 57.5388 410.17Z" fill="#7CB305"/>
<path fill-rule="evenodd" clip-rule="evenodd" d="M81.2316 368.469C81.2316 368.469 73.9252 362.715 66.7495 368.236C62.1277 371.791 57.4318 374.075 57.4318 374.075L58.815 374.755C58.815 374.755 65.0551 379.51 71.4538 375.48C77.8524 371.451 79.0501 368.433 81.2316 368.469Z" fill="#5B8C00"/>
<path fill-rule="evenodd" clip-rule="evenodd" d="M59.4666 409.852H61.2873L62.0074 387.29L60.6359 365.995C60.641 365.563 60.3538 365.181 59.9345 365.062L59.1453 364.839C59.1453 364.839 60.8589 381.749 60.8589 385.18C60.8589 394.883 59.4666 409.852 59.4666 409.852Z" fill="#7CB305"/>
<path fill-rule="evenodd" clip-rule="evenodd" d="M38.9777 352.924C38.9777 352.924 42.8661 347.216 52.0767 352.948C61.3549 358.723 60.7107 366.299 60.7107 366.299L57.7457 366.605C57.7457 366.605 50.2195 368.888 45.6533 362.889C41.0871 356.891 41.0334 353.648 38.9777 352.924Z" fill="#7CB305"/>
<path fill-rule="evenodd" clip-rule="evenodd" d="M38.9777 352.924C38.9777 352.924 43.1636 349.865 46.7217 354.222C48.5424 356.452 51.7636 358.133 53.1477 359.424C56.7434 362.78 59.2818 366.449 59.2818 366.449L57.7458 366.605C57.7458 366.605 50.2195 368.888 45.6533 362.889C41.0871 356.891 41.0334 353.648 38.9777 352.924Z" fill="#5B8C00"/>
<path fill-rule="evenodd" clip-rule="evenodd" d="M69.615 439.577H44.7678C43.3482 439.577 42.1974 438.437 42.1974 437.029V412.4C42.1974 410.992 43.3482 409.852 44.7678 409.852H69.615C71.0346 409.852 72.1854 410.992 72.1854 412.4V437.029C72.1854 438.437 71.0346 439.577 69.615 439.577Z" fill="#253368"/>
<path fill-rule="evenodd" clip-rule="evenodd" d="M374.442 417.087H400.957V411.715H374.442V417.087Z" fill="#253368"/>
<path fill-rule="evenodd" clip-rule="evenodd" d="M394.36 356.857L401.461 443.588H407.558L400.457 356.857H394.36Z" fill="#597EF7"/>
<path fill-rule="evenodd" clip-rule="evenodd" d="M374.942 356.857L367.842 443.588H373.939L381.039 356.857H374.942Z" fill="#597EF7"/>
<path fill-rule="evenodd" clip-rule="evenodd" d="M372.354 362.502C369.208 362.502 366.658 359.975 366.658 356.857C366.658 353.74 369.208 351.212 372.354 351.212H403.603C406.748 351.212 409.298 353.74 409.298 356.857C409.298 359.975 406.748 362.502 403.603 362.502H372.354Z" fill="#A3B5D6"/>
<path fill-rule="evenodd" clip-rule="evenodd" d="M310.147 308.01L318.85 321.71L357.222 299.363C361.679 296.582 363.016 290.747 360.21 286.329C357.404 281.912 351.518 280.586 347.062 283.367L310.147 308.01Z" fill="#E4EBF7"/>
<path d="M346.871 283.086C347.028 282.982 347.24 283.023 347.346 283.178C347.442 283.319 347.416 283.506 347.293 283.618L347.253 283.649L310.409 308.234L318.757 321.375L351.284 302.07C351.432 301.982 351.621 302.018 351.726 302.149L351.753 302.187C351.842 302.334 351.805 302.521 351.673 302.625L351.635 302.652L318.822 322.128C318.677 322.214 318.493 322.181 318.387 322.057L318.357 322.018L309.654 308.318C309.564 308.177 309.592 307.995 309.713 307.886L309.752 307.856L346.871 283.086Z" fill="#A3B5D6"/>
<path d="M316.451 305.147C316.596 305.056 316.784 305.087 316.893 305.213L316.923 305.253L324.312 316.886C324.413 317.045 324.365 317.254 324.205 317.354C324.06 317.445 323.872 317.413 323.764 317.288L323.734 317.248L316.344 305.614C316.243 305.456 316.291 305.247 316.451 305.147Z" fill="#A3B5D6"/>
<path fill-rule="evenodd" clip-rule="evenodd" d="M349.604 300.44C344.425 299.499 340.995 294.575 341.944 289.44L349.194 250.212C350.143 245.077 355.112 241.678 360.291 242.618C365.47 243.559 368.9 248.483 367.951 253.618L360.701 292.847C359.752 297.981 354.783 301.38 349.604 300.44Z" fill="#E4EBF7"/>
<path fill-rule="evenodd" clip-rule="evenodd" d="M389.689 213.085C389.689 213.085 389.205 198.973 371.801 202.579C362.206 205.244 365.18 221.3 365.18 221.3C365.18 221.3 365.075 224.793 366.949 228.056C369.048 231.711 372.999 232.389 377.985 232.005C387.054 230.156 389.883 224.566 389.883 224.566C389.883 224.566 396.246 223.978 394.382 216.231C392.604 209.052 389.689 213.085 389.689 213.085Z" fill="#FFC999"/>
<path fill-rule="evenodd" clip-rule="evenodd" d="M385.585 204.618C386.119 208.183 389.468 210.645 393.065 210.116C396.662 209.586 399.145 206.267 398.611 202.701C398.078 199.136 394.728 196.674 391.131 197.203C387.534 197.733 385.051 201.052 385.585 204.618Z" fill="#253368"/>
<path fill-rule="evenodd" clip-rule="evenodd" d="M365.34 221.789C365.34 221.789 362.65 218.427 360.71 214.233C358.77 210.038 365.873 200.034 366.909 199.159C367.944 198.284 368.408 197.493 376.677 199.167C400.106 196.664 397.748 218.629 397.748 218.629C397.748 218.629 400.752 220.175 399.966 225.638C398.895 231.142 391.632 232.397 391.632 232.397L390.153 224.251C390.153 224.251 392.643 224.072 394.075 220.971C395.506 217.871 393.388 214.67 392.205 214.555C391.075 213.949 388.592 214.7 389.044 217.722C389.272 219.244 385.841 216.263 383.829 210.64C375.466 210.281 372.59 204.971 372.59 204.971C372.59 204.971 373.109 210.385 374.732 212.459C370.262 211.816 367.64 209.89 367.994 207.381C363.462 210.215 365.34 221.789 365.34 221.789Z" fill="#253368"/>
<path fill-rule="evenodd" clip-rule="evenodd" d="M391.945 234.123L389.749 221.232L373.754 223.961C373.754 223.961 374.601 232.035 374.79 235.462C365.194 242.695 389.351 245.531 393.851 238.306C395.241 236.074 391.945 234.123 391.945 234.123Z" fill="#FFC999"/>
<path fill-rule="evenodd" clip-rule="evenodd" d="M374.199 218.49C374.962 221.538 377.741 223.478 380.404 222.822C383.067 222.166 384.607 219.164 383.843 216.115C383.079 213.067 380.301 211.127 377.638 211.783C374.975 212.439 373.435 215.441 374.199 218.49Z" fill="white"/>
<path d="M377.555 211.454C374.698 212.158 373.06 215.351 373.867 218.571C374.673 221.792 377.628 223.855 380.486 223.151C383.344 222.447 384.982 219.254 384.175 216.034C383.38 212.861 380.501 210.812 377.683 211.424L377.555 211.454ZM383.511 216.197C384.232 219.074 382.79 221.885 380.321 222.493C377.853 223.101 375.251 221.284 374.531 218.408C373.81 215.531 375.252 212.72 377.72 212.112C380.189 211.504 382.79 213.32 383.511 216.197Z" fill="#253368"/>
<path fill-rule="evenodd" clip-rule="evenodd" d="M363.211 219.681C363.975 222.73 366.616 224.704 369.109 224.09C371.602 223.476 373.004 220.507 372.241 217.459C371.477 214.411 368.837 212.437 366.343 213.05C363.85 213.664 362.448 216.633 363.211 219.681Z" fill="white"/>
<path d="M366.261 212.721C363.567 213.384 362.074 216.546 362.879 219.763C363.685 222.98 366.498 225.082 369.191 224.419C371.885 223.756 373.378 220.594 372.573 217.377C371.779 214.209 369.04 212.122 366.383 212.693L366.261 212.721ZM371.909 217.54C372.63 220.421 371.319 223.197 369.026 223.761C366.734 224.325 364.265 222.48 363.543 219.6C362.822 216.719 364.133 213.944 366.425 213.379C368.719 212.815 371.187 214.66 371.909 217.54Z" fill="#253368"/>
<path d="M373.096 219.417C373.178 219.301 373.339 219.271 373.457 219.352C373.562 219.423 373.597 219.558 373.546 219.669L373.523 219.709L372.18 221.641L374.14 222.894C374.247 222.962 374.287 223.095 374.24 223.208L374.218 223.249C374.149 223.355 374.015 223.394 373.901 223.347L373.859 223.326L371.674 221.93C371.563 221.859 371.525 221.719 371.579 221.605L371.601 221.568L373.096 219.417Z" fill="#DD936F"/>
<path d="M377.69 224.134C377.863 224.058 378.065 224.135 378.142 224.306C378.218 224.478 378.141 224.678 377.968 224.754L377.713 224.862C377.667 224.88 377.618 224.901 377.564 224.922C377.253 225.047 376.919 225.172 376.575 225.288C376.201 225.415 375.838 225.524 375.493 225.611C374.838 225.776 374.277 225.854 373.829 225.823C373.64 225.809 373.499 225.647 373.512 225.46C373.525 225.274 373.689 225.133 373.877 225.146C374.238 225.172 374.734 225.103 375.324 224.954C375.65 224.872 375.996 224.768 376.353 224.647C376.602 224.562 376.845 224.473 377.078 224.384L377.308 224.293C377.488 224.221 377.619 224.166 377.69 224.134Z" fill="#F5222D"/>
<path fill-rule="evenodd" clip-rule="evenodd" d="M373.846 216.355C373.846 216.355 372.904 215.915 372.227 216.593L373.846 216.355Z" fill="white"/>
<path d="M373.846 216.355C373.846 216.355 372.904 215.915 372.227 216.593" stroke="#253368" stroke-width="0.748535" stroke-linecap="round" stroke-linejoin="round"/>
<path d="M383.169 230.044C383.302 229.991 383.453 230.055 383.507 230.187C383.56 230.318 383.496 230.468 383.363 230.521C382.634 230.812 381.788 231.079 380.845 231.323C379.707 231.618 378.488 231.866 377.27 232.068C376.929 232.124 376.608 232.174 376.311 232.217L375.731 232.296C375.696 232.301 375.667 232.304 375.643 232.307C375.501 232.324 375.372 232.223 375.355 232.082C375.338 231.942 375.439 231.814 375.582 231.797L376.021 231.739C376.372 231.69 376.763 231.631 377.184 231.561C378.388 231.361 379.592 231.117 380.714 230.826C381.637 230.587 382.463 230.326 383.169 230.044Z" fill="#DD936F"/>
<path fill-rule="evenodd" clip-rule="evenodd" d="M376.921 217.957C377.035 218.722 377.469 219.292 377.89 219.23C378.311 219.168 378.56 218.498 378.445 217.733C378.33 216.968 377.896 216.398 377.475 216.46C377.054 216.521 376.806 217.192 376.921 217.957Z" fill="#253368"/>
<path fill-rule="evenodd" clip-rule="evenodd" d="M367.032 219.54C367.147 220.305 367.58 220.876 368.001 220.813C368.422 220.752 368.671 220.081 368.557 219.316C368.442 218.552 368.008 217.981 367.587 218.043C367.165 218.106 366.918 218.776 367.032 219.54Z" fill="#253368"/>
<path d="M383.785 215.44L388.23 214.882" stroke="#253368" stroke-width="0.748535" stroke-linecap="round" stroke-linejoin="round"/>
<path fill-rule="evenodd" clip-rule="evenodd" d="M378.034 343.165L396.307 332.61C397.577 331.877 398.358 330.529 398.357 329.073L400.215 308.969C400.215 308.969 373.693 294.315 360.344 300.378C356.417 302.16 355.854 322.351 355.854 322.351C352.103 324.744 356.369 331.171 357.01 332.025C358.977 334.645 364.737 336.367 373.93 342.55C375.177 343.39 376.761 343.967 378.034 343.165Z" fill="#253368"/>
<path d="M374.34 315.011C374.447 315.03 374.522 315.123 374.522 315.227L374.518 315.266L373.854 318.912C373.832 319.032 373.717 319.111 373.597 319.089C373.49 319.07 373.415 318.978 373.415 318.874L373.418 318.834L374.083 315.188C374.102 315.082 374.195 315.008 374.3 315.008L374.34 315.011Z" fill="#253368"/>
<path fill-rule="evenodd" clip-rule="evenodd" d="M340.117 346.033L386.991 345.189C396.688 344.915 404.394 337.815 403.342 330.124C402.432 323.465 395.225 318.831 386.833 319.509L339.679 323.317C339.679 323.317 326.219 323.811 326.564 335.137C326.901 346.151 340.117 346.033 340.117 346.033Z" fill="#253368"/>
<path fill-rule="evenodd" clip-rule="evenodd" d="M372.149 235.903L372.922 235.885C372.351 240.488 389.863 241.159 392.57 235.817C392.638 235.681 392.692 235.554 392.738 235.431L394.871 235.382L395.593 312.406C388.273 308.97 381.975 305.707 363.233 306.679C356.858 242.655 372.149 235.903 372.149 235.903Z" fill="#597EF7"/>
<path fill-rule="evenodd" clip-rule="evenodd" d="M356.828 371.828C359.932 370.618 363.599 372.099 364.733 375.027C366.669 380.032 369.755 387.695 373.057 394.675C376.017 400.931 379.362 404.648 378.95 406.793C378.505 409.106 374.714 408.989 373.542 412.226C372.369 415.463 371.582 417.897 364.308 419.512C355.802 421.402 361.478 416.519 363.323 411.987C366.582 403.982 365.917 401.178 364.038 397.183C360.189 389.001 356.656 382.944 354.221 379.049C352.543 376.363 353.752 373.027 356.828 371.828Z" fill="#FFC999"/>
<path fill-rule="evenodd" clip-rule="evenodd" d="M351.594 333.208L374.615 390.141C375.165 391.501 374.542 392.992 373.146 393.653L363.293 398.324C361.633 399.112 359.537 398.436 358.754 396.862L331.533 342.195C331.533 342.195 326.521 333.048 337.48 328.9C347.704 325.031 351.594 333.208 351.594 333.208Z" fill="#253368"/>
<path fill-rule="evenodd" clip-rule="evenodd" d="M376.257 400.621C376.257 400.621 375.93 402.396 373.778 406.785C372.081 410.248 370.923 412.402 368.958 412.481C365.37 412.624 362.783 413.041 362.783 413.041C362.783 413.041 360.789 415.514 359.562 417.846C358.334 420.179 359.924 422.412 364.809 421.063C369.693 419.713 372.149 418.324 374.723 413.448C377.297 408.572 379.864 408.984 379.55 406.983C379.059 403.854 376.257 400.621 376.257 400.621Z" fill="#253368"/>
<path fill-rule="evenodd" clip-rule="evenodd" d="M376.285 392.597L360.131 400.255C359.789 400.417 359.357 400.283 359.188 399.962L355.757 393.44C355.602 393.146 355.725 392.8 356.039 392.652L373.205 384.513C373.582 384.335 374.054 384.517 374.184 384.889L376.602 391.891C376.698 392.169 376.566 392.464 376.285 392.597Z" fill="#4E5C93"/>
<path fill-rule="evenodd" clip-rule="evenodd" d="M329.47 375.345C332.796 376.245 334.619 379.784 333.396 382.98C331.305 388.443 328.198 396.882 325.755 404.875C323.566 412.039 323.519 417.281 321.642 418.851C319.617 420.542 316.709 418.087 313.442 420.113C310.175 422.137 307.793 423.72 300.882 420.574C292.799 416.895 300.812 416.268 305.547 413.558C313.911 408.771 315.415 405.972 316.821 401.404C319.701 392.048 321.293 384.697 322.188 379.87C322.807 376.54 326.174 374.453 329.47 375.345Z" fill="#FFC999"/>
<path fill-rule="evenodd" clip-rule="evenodd" d="M323.981 411.924C323.981 411.924 322.438 413.231 317.564 415.629C313.721 417.521 311.248 418.635 309.639 417.48C306.703 415.372 304.359 414.119 304.359 414.119C304.359 414.119 300.995 414.983 298.339 416.205C295.684 417.428 295.323 420.317 300.155 422.204C304.987 424.092 307.931 424.437 313.49 421.886C319.049 419.337 320.778 421.284 321.979 419.384C323.854 416.417 323.981 411.924 323.981 411.924Z" fill="#253368"/>
<path fill-rule="evenodd" clip-rule="evenodd" d="M347.232 335.778L329.669 400.244C329.25 401.785 327.761 402.795 326.16 402.624L314.859 401.42C312.955 401.217 311.632 399.445 311.994 397.581L324.56 332.851C324.56 332.851 326.278 321.767 338.17 324.059C349.263 326.196 347.232 335.778 347.232 335.778Z" fill="#253368"/>
<path fill-rule="evenodd" clip-rule="evenodd" d="M329.967 403.562L311.348 402.791C310.954 402.774 310.655 402.432 310.696 402.043L311.523 394.149C311.56 393.792 311.87 393.526 312.231 393.541L332.017 394.361C332.451 394.379 332.758 394.787 332.652 395.204L330.659 403.05C330.579 403.362 330.29 403.576 329.967 403.562Z" fill="#4E5C93"/>
<path d="M374.264 241.949C374.325 241.819 374.482 241.763 374.613 241.825C374.972 241.992 375.335 242.146 375.704 242.287C379.698 243.809 383.973 243.711 388.016 242.628C388.583 242.476 389.102 242.315 389.565 242.152L389.76 242.082C389.894 242.034 390.015 241.988 390.124 241.945L390.385 241.838C390.518 241.779 390.673 241.838 390.732 241.97C390.791 242.101 390.732 242.254 390.599 242.313L390.473 242.366L390.426 242.385C390.287 242.441 390.125 242.504 389.941 242.571C389.416 242.762 388.817 242.952 388.153 243.13C384.012 244.239 379.629 244.34 375.516 242.772C375.135 242.627 374.759 242.468 374.389 242.295C374.258 242.234 374.202 242.079 374.264 241.949Z" fill="#597EF7"/>
<path fill-rule="evenodd" clip-rule="evenodd" d="M375.175 234.507C375.175 234.507 368.443 249.464 368.434 289.304C368.424 329.201 357.261 321.38 357.261 321.38L337.615 324.817C337.615 324.817 350.832 318.85 351.346 298.564C352.281 261.62 352.93 251.532 356.078 243.311C359.584 241.378 363.297 240.063 368.714 237.246C370.03 236.562 375.175 234.507 375.175 234.507Z" fill="#E4EBF7"/>
<path d="M355.355 256.125C355.528 256.135 355.663 256.271 355.676 256.437L355.676 256.499L355.605 257.864L355.545 259.128C355.479 260.584 355.414 262.221 355.352 264.023L355.291 265.906C354.961 276.636 354.909 288.392 355.293 300.367C355.299 300.554 355.151 300.711 354.962 300.717C354.773 300.723 354.615 300.576 354.609 300.388C354.225 288.398 354.277 276.628 354.607 265.885L354.669 264C354.73 262.195 354.796 260.556 354.862 259.098L354.957 257.118L354.994 256.444C355.005 256.257 355.166 256.114 355.355 256.125Z" fill="#A3B5D6"/>
<path d="M374.451 234.01C374.622 233.929 374.826 234.002 374.906 234.171C374.98 234.326 374.925 234.509 374.784 234.6L374.743 234.623L368.618 237.494L368.561 237.721L368.541 237.804C368.446 238.193 368.34 238.663 368.225 239.217L368.122 239.729C367.829 241.212 367.539 242.971 367.265 245.014L367.167 245.764C365.587 258.109 365.287 274.675 367.041 295.768C367.056 295.954 366.916 296.118 366.728 296.133C366.54 296.149 366.374 296.01 366.359 295.823C364.583 274.469 364.909 257.733 366.537 245.3L366.587 244.924C366.895 242.626 367.225 240.681 367.555 239.081L367.641 238.675C367.696 238.415 367.75 238.176 367.801 237.957L367.9 237.544L367.966 237.286C367.982 237.226 367.993 237.185 367.999 237.163C368.022 237.085 368.072 237.017 368.14 236.972L368.182 236.948L374.451 234.01Z" fill="#A3B5D6"/>
<path fill-rule="evenodd" clip-rule="evenodd" d="M413.12 246.153C407.727 241.953 401.331 238.404 397.877 236.495C395.664 235.272 393.883 233.62 392.145 233.061C380.951 282.801 384.079 340.087 386.287 368.684C399.426 370.292 413.254 360.665 413.254 360.665C415.983 363.128 409.203 322.074 409.653 294.268C410.003 272.622 414.332 247.097 413.12 246.153Z" fill="#E4EBF7"/>
<path d="M392.009 232.699C392.105 232.558 392.29 232.512 392.44 232.584L392.484 232.609L397.899 236.261C397.986 236.319 398.041 236.414 398.048 236.518L398.063 236.819L398.066 236.895C398.128 238.686 398.046 241.215 397.706 244.401C397.217 248.992 396.274 254.045 394.777 259.486L394.62 260.051C393.811 262.929 389.701 276.666 388.749 280.287C387.293 285.824 386.339 290.727 385.724 296.215C385.703 296.401 385.534 296.535 385.346 296.514C385.158 296.493 385.023 296.326 385.044 296.14C385.637 290.848 386.544 286.095 387.907 280.808L388.153 279.867C389.218 275.896 393.173 262.675 393.961 259.869C395.54 254.249 396.523 249.043 397.026 244.329C397.34 241.386 397.431 239.014 397.392 237.28L397.374 236.727L392.099 233.17C391.957 233.074 391.911 232.891 391.984 232.742L392.009 232.699Z" fill="#A3B5D6"/>
<path d="M410.384 311.115C410.571 311.093 410.741 311.226 410.763 311.412C410.783 311.583 410.672 311.738 410.509 311.78L410.463 311.788L399.831 313.024L400.391 337.014C400.434 338.866 402.084 340.266 403.924 340.04L404.028 340.025L412.248 338.746C412.435 338.717 412.61 338.844 412.639 339.029C412.666 339.198 412.561 339.358 412.4 339.406L412.354 339.416L404.134 340.695C401.883 341.046 399.831 339.385 399.712 337.145L399.707 337.029L399.14 312.731C399.136 312.572 399.244 312.434 399.395 312.395L399.442 312.386L410.384 311.115Z" fill="#A3B5D6"/>
<path fill-rule="evenodd" clip-rule="evenodd" d="M341.44 332.493L381.543 327.809L342.523 314.405L309.36 321.542L341.44 332.493Z" fill="#CCD7EE"/>
<path fill-rule="evenodd" clip-rule="evenodd" d="M340.048 329.68L369.174 326.278L341.519 316.516L316.748 321.726L340.048 329.68Z" fill="#253368"/>
<path fill-rule="evenodd" clip-rule="evenodd" d="M381.437 329.846L381.551 327.822L340.634 332.279L341.237 334.468L381.437 329.846Z" fill="#A3B5D6"/>
<path d="M335.921 318.102C335.953 318.027 336.033 317.986 336.111 318.001L336.144 318.01L358.592 327.185C358.679 327.221 358.721 327.32 358.685 327.407C358.653 327.482 358.573 327.523 358.495 327.509L358.461 327.499L336.014 318.324C335.927 318.288 335.885 318.189 335.921 318.102Z" fill="#CCD7EE"/>
<path d="M338.99 317.022C339.02 316.945 339.1 316.903 339.178 316.917L339.212 316.926L364.331 326.708C364.418 326.742 364.462 326.84 364.427 326.927C364.397 327.004 364.317 327.046 364.239 327.033L364.206 327.023L339.087 317.241C338.999 317.207 338.956 317.109 338.99 317.022Z" fill="#CCD7EE"/>
<path d="M335.496 320.142C335.528 320.067 335.609 320.027 335.687 320.042L335.72 320.053L354.558 328.057C354.645 328.094 354.685 328.194 354.648 328.28C354.616 328.355 354.534 328.395 354.457 328.379L354.424 328.369L335.585 320.364C335.499 320.328 335.458 320.228 335.496 320.142Z" fill="#CCD7EE"/>
<path d="M330.234 320.453C330.266 320.378 330.348 320.338 330.425 320.354L330.458 320.364L349.297 328.37C349.383 328.406 349.424 328.506 349.386 328.592C349.354 328.667 349.273 328.707 349.195 328.691L349.162 328.681L330.324 320.676C330.237 320.639 330.197 320.539 330.234 320.453Z" fill="#CCD7EE"/>
<path d="M325.361 321.08C325.394 321.004 325.475 320.964 325.553 320.98L325.586 320.99L344.424 328.996C344.511 329.033 344.551 329.132 344.514 329.218C344.481 329.294 344.4 329.333 344.322 329.318L344.289 329.307L325.451 321.302C325.364 321.265 325.324 321.166 325.361 321.08Z" fill="#CCD7EE"/>
<path d="M364.49 324.848C364.584 324.84 364.666 324.91 364.674 325.003C364.681 325.085 364.628 325.158 364.552 325.18L364.518 325.186L339.628 327.239C339.534 327.247 339.451 327.178 339.443 327.085C339.436 327.003 339.489 326.93 339.565 326.908L339.599 326.902L364.49 324.848Z" fill="#CCD7EE"/>
<path d="M359.072 322.711C359.166 322.704 359.249 322.773 359.257 322.866C359.264 322.948 359.211 323.021 359.135 323.043L359.101 323.049L334.21 325.103C334.116 325.111 334.034 325.042 334.026 324.948C334.019 324.867 334.072 324.794 334.148 324.772L334.182 324.765L359.072 322.711Z" fill="#CCD7EE"/>
<path d="M352.139 320.661C352.233 320.648 352.319 320.712 352.333 320.805C352.344 320.886 352.296 320.962 352.221 320.988L352.187 320.996L326.752 324.574C326.658 324.587 326.572 324.523 326.558 324.43C326.547 324.349 326.595 324.273 326.67 324.247L326.704 324.239L352.139 320.661Z" fill="#CCD7EE"/>
<path d="M347.348 318.296C347.441 318.282 347.528 318.345 347.542 318.438C347.555 318.519 347.507 318.595 347.433 318.622L347.399 318.631L324.846 322.021C324.753 322.035 324.666 321.971 324.651 321.878C324.639 321.797 324.687 321.721 324.761 321.694L324.795 321.685L347.348 318.296Z" fill="#CCD7EE"/>
<path fill-rule="evenodd" clip-rule="evenodd" d="M341.205 334.468L339.408 334.552L309.064 323.773L298.709 271.794L331.542 279.646L341.205 334.468Z" fill="#A3B5D6"/>
<path fill-rule="evenodd" clip-rule="evenodd" d="M339.344 334.553L307.344 323.201C307.052 323.096 306.835 322.848 306.775 322.546L296.767 272.591C296.642 271.963 297.216 271.418 297.843 271.569L328.985 279.061C329.327 279.144 329.586 279.418 329.647 279.761L339.344 334.553Z" fill="#4E5C93"/>
<path fill-rule="evenodd" clip-rule="evenodd" d="M405.59 303.218L406.117 303.263C411.506 303.716 416.246 299.753 416.703 294.411L419.974 256.202C420.431 250.86 416.434 246.162 411.044 245.709L410.517 245.664C405.128 245.211 400.388 249.174 399.931 254.515L396.66 292.725C396.203 298.067 400.201 302.765 405.59 303.218Z" fill="#E4EBF7"/>
<path fill-rule="evenodd" clip-rule="evenodd" d="M364.554 310.087C361.304 312.349 351.243 310.866 351.243 310.866L344.535 314.156C343.499 314.567 343.25 313.882 342.737 313.882C341.355 313.882 341.355 312.443 341.355 312.443C340.879 312.218 340.11 312.58 339.903 311.277C339.903 311.277 338.935 311.209 338.865 310.044C338.829 309.428 345.132 300.541 345.132 300.541L354.538 300.795C354.538 300.795 368.278 301.05 369.819 304.105C371.359 307.16 364.554 310.087 364.554 310.087Z" fill="#F4B784"/>
<path d="M350.534 305.21C350.668 305.163 350.816 305.232 350.864 305.365C350.907 305.485 350.854 305.615 350.746 305.675L350.708 305.692L346.895 307.041L342.226 312.077C342.196 312.106 342.149 312.159 342.099 312.227L342.061 312.282C341.931 312.478 341.875 312.666 341.918 312.82C341.99 313.079 342.346 313.312 343.112 313.464C343.252 313.492 343.342 313.626 343.314 313.765C343.286 313.903 343.151 313.993 343.011 313.965C342.074 313.78 341.555 313.439 341.421 312.955C341.331 312.631 341.427 312.307 341.631 312C341.703 311.892 341.775 311.805 341.828 311.75L341.856 311.721L346.559 306.649C346.578 306.628 346.6 306.611 346.624 306.598L346.662 306.581L350.534 305.21Z" fill="#DD936F"/>
<path d="M348.228 303.027C348.356 302.966 348.51 303.02 348.571 303.148C348.627 303.262 348.588 303.398 348.486 303.468L348.45 303.489L345.46 304.903L340.989 310.424L340.955 310.462L340.903 310.524C340.835 310.607 340.767 310.698 340.704 310.795C340.562 311.015 340.467 311.228 340.439 311.414C340.381 311.805 340.622 312.066 341.396 312.19C341.536 312.212 341.632 312.344 341.609 312.483C341.587 312.622 341.454 312.717 341.314 312.695C340.282 312.53 339.826 312.034 339.929 311.34C339.969 311.07 340.092 310.794 340.27 310.519C340.32 310.442 340.372 310.37 340.424 310.301L340.531 310.168L340.6 310.089L345.095 304.538C345.112 304.518 345.131 304.5 345.152 304.486L345.185 304.467L348.228 303.027Z" fill="#DD936F"/>
<path d="M352.926 307.53C353.066 307.505 353.2 307.597 353.225 307.736C353.248 307.861 353.175 307.981 353.058 308.022L353.018 308.033L348.531 308.842L343.666 313.53L343.666 313.538C343.664 313.568 343.666 313.597 343.674 313.625L343.69 313.666C343.763 313.811 344.004 313.914 344.529 313.9C344.963 313.889 345.821 313.505 346.937 312.848C347.166 312.713 347.403 312.568 347.647 312.415C348.175 312.084 348.709 311.728 349.222 311.373L349.891 310.9C349.927 310.873 349.97 310.857 350.015 310.852L350.272 310.827L350.534 310.805C350.673 310.794 350.822 310.783 350.981 310.773C352.07 310.702 353.267 310.673 354.516 310.709L355.042 310.727L355.901 310.767C360.077 310.965 362.479 310.721 365.341 309.348C365.469 309.286 365.623 309.339 365.685 309.467C365.747 309.594 365.694 309.747 365.565 309.808C362.734 311.166 360.348 311.456 356.421 311.301L355.021 311.238L354.913 311.234C353.533 311.179 352.207 311.206 351.015 311.283L350.576 311.314L350.14 311.353L349.778 311.61C349.695 311.668 349.608 311.729 349.517 311.792C348.998 312.151 348.458 312.511 347.923 312.847C347.675 313.003 347.434 313.15 347.2 313.287L346.907 313.457C345.855 314.057 345.053 314.398 344.542 314.411C343.837 314.43 343.404 314.246 343.228 313.893C343.144 313.725 343.134 313.553 343.165 313.395L343.179 313.341C343.181 313.333 343.183 313.326 343.185 313.32C343.194 313.295 343.206 313.271 343.223 313.249L343.249 313.219L348.228 308.421C348.256 308.394 348.289 308.374 348.325 308.362L348.362 308.353L352.926 307.53Z" fill="#DD936F"/>
<path d="M345.14 300.285L362.636 300.794C362.778 300.798 362.89 300.916 362.886 301.057C362.882 301.184 362.786 301.287 362.662 301.303L362.621 301.305L345.269 300.8L339.093 310.164L339.071 310.208C339.063 310.226 339.054 310.249 339.044 310.274L339.029 310.314C338.986 310.436 338.962 310.556 338.965 310.66C338.974 310.944 339.19 311.089 339.878 311.023C340.02 311.009 340.146 311.112 340.16 311.253C340.173 311.393 340.07 311.518 339.928 311.532C338.969 311.624 338.469 311.289 338.449 310.676C338.444 310.5 338.48 310.321 338.543 310.144C338.569 310.071 338.595 310.01 338.622 309.956L338.649 309.904L344.916 300.401C344.957 300.339 345.023 300.298 345.096 300.288L345.14 300.285Z" fill="#DD936F"/>
<path fill-rule="evenodd" clip-rule="evenodd" d="M361.565 297.557L365.683 313.224L409.074 303.418C414.17 302.102 417.225 296.94 415.897 291.889C414.569 286.838 409.362 283.811 404.267 285.126L361.565 297.557Z" fill="#E4EBF7"/>
<path d="M404.17 284.801C404.351 284.748 404.542 284.851 404.595 285.031C404.644 285.195 404.56 285.368 404.407 285.436L404.363 285.452L361.746 297.85L365.697 312.878L402.588 304.219C402.757 304.179 402.926 304.271 402.986 304.427L403 304.471C403.04 304.638 402.948 304.805 402.79 304.865L402.746 304.879L365.529 313.614C365.363 313.653 365.196 313.565 365.133 313.413L365.119 313.37L361.001 297.703C360.958 297.54 361.042 297.374 361.193 297.307L361.235 297.292L404.17 284.801Z" fill="#A3B5D6"/>
<path d="M368.447 296.717C368.615 296.674 368.785 296.761 368.85 296.916L368.864 296.96L372.361 310.262C372.408 310.443 372.299 310.629 372.116 310.676C371.948 310.719 371.777 310.631 371.713 310.477L371.699 310.433L368.202 297.131C368.155 296.949 368.264 296.764 368.447 296.717Z" fill="#A3B5D6"/>
<path d="M400.446 262.237C400.618 262.256 400.746 262.399 400.749 262.566L400.747 262.612L398.051 285.906C398.029 286.092 397.86 286.225 397.672 286.204C397.5 286.184 397.373 286.041 397.369 285.874L397.371 285.828L400.067 262.535C400.087 262.364 400.231 262.238 400.4 262.235L400.446 262.237Z" fill="#A3B5D6"/>
<path fill-rule="evenodd" clip-rule="evenodd" d="M156.667 421.113H128.176V415.34H156.667V421.113Z" fill="#253368"/>
<path fill-rule="evenodd" clip-rule="evenodd" d="M128.714 356.397L121.084 449.587H127.635L135.265 356.397H128.714ZM149.577 356.397L157.207 449.587H163.758L156.129 356.397H149.577Z" fill="#4E5C93"/>
<path fill-rule="evenodd" clip-rule="evenodd" d="M158.91 362.462C162.29 362.462 165.03 359.746 165.03 356.397C165.03 353.047 162.29 350.33 158.91 350.33H125.334C121.954 350.33 119.214 353.047 119.214 356.397C119.214 359.746 121.954 362.462 125.334 362.462H158.91Z" fill="#A3B5D6"/>
<path fill-rule="evenodd" clip-rule="evenodd" d="M239.671 324.699C238.788 327.066 236.416 328.554 233.881 328.33L182.493 323.802C176.794 323.3 172.738 318.089 173.695 312.498C174.652 306.897 180.23 303.301 185.784 304.705L235.774 317.344C239.017 318.164 240.832 321.587 239.671 324.699Z" fill="#FFC999"/>
<path fill-rule="evenodd" clip-rule="evenodd" d="M262.909 419.732C262.909 419.732 271.208 426.769 283.457 422.361C288.064 420.703 292.348 423.796 289.857 428.02C288.012 431.149 283.677 434.029 277.698 436.2C269.687 439.108 269.026 434.545 265.041 436.927C262.731 438.308 257.369 439.914 256.085 438.319C253.843 435.532 253.447 433.698 251.269 430.165C240.664 412.959 244.498 405.53 262.909 419.732Z" fill="#253368"/>
<path fill-rule="evenodd" clip-rule="evenodd" d="M220.148 419.593C220.148 419.593 222.236 426.76 231.877 434.34C238.202 439.312 231.478 444.58 218.12 438.746C210.503 435.42 213.414 432.284 208.936 431.187C206.341 430.551 201.495 428.122 201.793 426.362C202.314 423.284 203.394 421.941 204.509 418.46C209.94 401.51 218.032 399.503 220.148 419.593Z" fill="#253368"/>
<path fill-rule="evenodd" clip-rule="evenodd" d="M204.229 415.437L212.605 340.981C213.283 334.952 219.708 330.671 226.624 331.641C233.301 332.578 237.803 338.054 236.631 343.816L221.617 417.605C221.617 417.605 214.073 420.183 204.229 415.437Z" fill="#4E5C93"/>
<path fill-rule="evenodd" clip-rule="evenodd" d="M125.734 324.006C125.734 324.006 168.601 327.217 171.514 323.034C172.796 321.193 173.715 330.389 176.065 345.564C172.278 352.503 165.027 358.076 155.532 357.814C140.009 357.386 125.868 355.651 124.269 345.351C123.119 337.941 124.076 330.016 125.734 324.006Z" fill="#ADC6FF"/>
<path fill-rule="evenodd" clip-rule="evenodd" d="M172.173 319.157L172.595 324.27C172.595 324.27 168.465 324.978 154.032 325.71C139.389 326.453 125.773 324.777 125.773 324.777L125.708 320.124C125.708 320.124 155.173 320.986 172.173 319.157Z" fill="#ADC6FF"/>
<path fill-rule="evenodd" clip-rule="evenodd" d="M224.649 346.504C224.38 353.054 218.936 358.224 212.321 358.206L138.582 358.004C130.023 357.981 123.195 350.914 123.542 342.435C123.89 333.957 131.273 327.461 139.806 328.126L213.319 333.85C219.912 334.363 224.918 339.953 224.649 346.504Z" fill="#ADC6FF"/>
<path fill-rule="evenodd" clip-rule="evenodd" d="M247.688 425.63L202.253 352.657C198.573 346.747 200.693 338.986 206.877 335.723C212.848 332.572 220.265 334.87 223.363 340.831L263.049 417.178C263.049 417.178 258.847 424.056 247.688 425.63Z" fill="#ADC6FF"/>
<path fill-rule="evenodd" clip-rule="evenodd" d="M184.65 321.476C179.5 322.183 174.69 318.783 173.687 313.728L164.599 267.93C163.263 261.195 167.913 254.731 174.773 253.787C181.552 252.856 187.753 257.698 188.426 264.449L193.057 310.897C193.574 316.089 189.863 320.759 184.65 321.476Z" fill="#FFC999"/>
<path fill-rule="evenodd" clip-rule="evenodd" d="M193.044 293.942L170.252 296.979L165.608 266.815C164.592 260.213 169.235 254.067 175.913 253.178C182.591 252.287 188.707 256.999 189.486 263.633L193.044 293.942Z" fill="#597EF7"/>
<path fill-rule="evenodd" clip-rule="evenodd" d="M163.47 245.171L164.347 225.453L146.454 224.523L143.454 243.156C142.548 248.785 146.57 254.022 152.283 254.656C158.079 255.299 163.212 250.946 163.47 245.171Z" fill="#FFC999"/>
<path fill-rule="evenodd" clip-rule="evenodd" d="M169.201 224.491C169.201 224.491 172.209 221.972 173.161 223.967C174.115 225.961 171.421 232.478 168.453 232.355C164.491 232.192 169.201 224.491 169.201 224.491Z" fill="#FFC999"/>
<path fill-rule="evenodd" clip-rule="evenodd" d="M150.277 239.975C150.277 239.975 155.584 245.254 163.725 241.366C169.586 238.568 171.506 226.502 171.35 217.49C171.262 212.39 169.195 209.444 164.39 207.456C159.584 205.469 146.148 204.073 144.552 218.895C142.774 235.404 150.277 239.975 150.277 239.975Z" fill="#FFC999"/>
<path d="M162.51 218.972C162.384 218.927 162.245 218.979 162.18 219.09L162.159 219.135L161.039 222.19C161.029 222.215 161.024 222.242 161.023 222.268L161.023 222.309L161.826 230.605L158.567 230.307C158.431 230.295 158.31 230.383 158.277 230.509L158.269 230.553C158.256 230.687 158.345 230.808 158.473 230.841L158.517 230.848L162.105 231.177C162.261 231.191 162.393 231.075 162.404 230.926L162.403 230.881L161.575 222.317L162.674 219.32C162.72 219.195 162.667 219.058 162.555 218.993L162.51 218.972Z" fill="#DD936F"/>
<path d="M151.478 216.851C151.074 216.729 150.646 216.955 150.522 217.356C150.399 217.757 150.627 218.181 151.031 218.303C151.838 218.547 153.209 218.62 155.457 218.606L156.346 218.598L158.4 218.569C158.823 218.566 159.163 218.223 159.159 217.804C159.155 217.385 158.81 217.048 158.387 217.051L155.68 217.087L155.044 217.09C153.211 217.091 152.037 217.02 151.478 216.851Z" fill="#253368"/>
<path d="M155.838 232.403C155.64 232.33 155.419 232.431 155.346 232.628C155.273 232.824 155.375 233.042 155.573 233.115L155.714 233.163C155.793 233.188 155.894 233.219 156.016 233.255C156.368 233.356 156.777 233.457 157.24 233.551C158.629 233.833 160.204 233.995 161.934 233.978C162.145 233.976 162.315 233.804 162.313 233.594C162.311 233.385 162.137 233.217 161.926 233.219C160.252 233.235 158.731 233.079 157.394 232.807C157.025 232.732 156.693 232.653 156.401 232.574L156.23 232.526C156.034 232.469 155.902 232.426 155.838 232.403Z" fill="#FF7946"/>
<path fill-rule="evenodd" clip-rule="evenodd" d="M145.604 225.422L143.276 219.415C143.276 219.415 142.275 210.992 144.564 207.644C148.114 202.448 154.931 203.287 159.138 202.231C163.343 201.174 163.444 199.818 165.066 200.209C166.688 200.6 172.604 205.647 172.844 210.324C173.057 214.435 170.954 224.642 170.954 224.642C170.954 224.642 170.747 215.394 170.108 212.893C167.031 211.237 155.361 209.989 150.334 210.986C150.334 210.986 149.591 214.052 149.121 216.216C146.321 217.803 145.604 225.422 145.604 225.422Z" fill="#253368"/>
<path d="M145.891 233.076C145.837 232.936 145.679 232.865 145.537 232.918C145.396 232.971 145.324 233.128 145.378 233.269C146.025 234.96 146.829 236.426 147.755 237.68C148.656 238.9 149.622 239.859 150.591 240.584C150.931 240.839 151.248 241.047 151.534 241.211C151.708 241.312 151.835 241.376 151.893 241.401C155.853 243.438 159.498 243.416 162.583 242.153C163.042 241.965 163.448 241.763 163.796 241.561L163.962 241.462C164.086 241.386 164.177 241.325 164.233 241.283C164.355 241.194 164.38 241.024 164.29 240.903C164.2 240.783 164.028 240.757 163.907 240.847L163.836 240.896C163.764 240.945 163.657 241.012 163.519 241.092C163.192 241.282 162.809 241.473 162.374 241.651C159.487 242.832 156.089 242.875 152.356 241.025L152.032 240.863C151.974 240.834 151.9 240.793 151.81 240.741C151.543 240.588 151.244 240.392 150.921 240.15C149.994 239.456 149.066 238.536 148.198 237.359C147.301 236.144 146.52 234.722 145.891 233.076Z" fill="#DD936F"/>
<path d="M159.312 221.666C159.01 221.648 158.75 221.876 158.732 222.176C158.714 222.455 158.914 222.698 159.186 222.744L159.246 222.751L161.893 222.911C162.195 222.929 162.455 222.701 162.473 222.401C162.491 222.121 162.291 221.878 162.019 221.832L161.959 221.826L159.312 221.666Z" fill="#253368"/>
<path d="M160.828 223.165C160.331 223.117 159.82 223.203 159.321 223.373C159.081 223.455 158.894 223.538 158.78 223.598C158.512 223.739 158.41 224.068 158.552 224.333C158.684 224.579 158.979 224.684 159.235 224.585L159.367 224.523C159.442 224.489 159.548 224.445 159.678 224.401C160.041 224.277 160.403 224.216 160.721 224.247C161.005 224.275 161.235 224.373 161.42 224.56L161.487 224.634C161.68 224.866 162.025 224.899 162.259 224.708C162.493 224.518 162.526 224.175 162.334 223.943C161.943 223.473 161.422 223.223 160.828 223.165Z" fill="#253368"/>
<path d="M167.557 217.248C166.401 217.135 165.188 217.299 163.998 217.639C163.441 217.798 163.011 217.958 162.757 218.071C162.371 218.241 162.198 218.69 162.37 219.073C162.543 219.456 162.995 219.628 163.382 219.457L163.481 219.415C163.526 219.397 163.583 219.375 163.65 219.35C163.879 219.264 164.139 219.178 164.421 219.097C165.441 218.806 166.471 218.667 167.407 218.759C168.227 218.839 168.926 219.094 169.485 219.546C169.813 219.811 170.295 219.763 170.563 219.438C170.83 219.113 170.781 218.635 170.453 218.37C169.642 217.715 168.66 217.356 167.557 217.248Z" fill="#253368"/>
<path d="M157.963 235.593C157.812 235.582 157.681 235.694 157.67 235.844C157.66 235.978 157.751 236.097 157.879 236.128L157.923 236.135L160.078 236.292C160.229 236.304 160.36 236.191 160.371 236.042C160.381 235.907 160.291 235.788 160.162 235.757L160.118 235.75L157.963 235.593Z" fill="#DD936F"/>
<path d="M145.19 220.59C144.888 220.566 144.624 220.789 144.6 221.089C144.578 221.368 144.772 221.614 145.044 221.665L145.103 221.673L149.438 222.014C149.74 222.038 150.004 221.814 150.028 221.515C150.051 221.236 149.856 220.989 149.584 220.938L149.525 220.931L145.19 220.59Z" fill="#253368"/>
<path fill-rule="evenodd" clip-rule="evenodd" d="M149.87 220.647L158.15 221.252C158.727 221.294 159.162 221.791 159.115 222.364C159.028 223.433 158.839 225.142 158.45 226.589C157.991 228.296 156.341 229.241 154.56 229.192C152.336 229.132 150.345 228.989 149.423 227.775C148.019 225.924 148.608 223.09 148.753 221.577C148.806 221.022 149.308 220.606 149.87 220.647Z" fill="white"/>
<path d="M149.883 220.466L158.163 221.071C158.843 221.121 159.352 221.706 159.297 222.378C159.171 223.919 158.957 225.405 158.627 226.635C158.162 228.362 156.5 229.426 154.555 229.373L154.149 229.361C151.381 229.261 150.075 228.935 149.277 227.883C148.705 227.13 148.416 226.186 148.343 225.059C148.297 224.349 148.332 223.667 148.437 222.724L148.555 221.716C148.561 221.66 148.566 221.609 148.571 221.56C148.634 220.907 149.222 220.418 149.883 220.466ZM149.856 220.827C149.393 220.794 148.978 221.138 148.934 221.595L148.908 221.841L148.825 222.543C148.703 223.585 148.659 224.299 148.707 225.036C148.776 226.098 149.045 226.975 149.569 227.666C150.309 228.641 151.635 228.931 154.565 229.011C156.35 229.06 157.856 228.096 158.274 226.542C158.598 225.337 158.809 223.87 158.933 222.349C158.971 221.878 158.614 221.468 158.136 221.432L149.856 220.827Z" fill="#253368"/>
<path fill-rule="evenodd" clip-rule="evenodd" d="M162.791 221.499L172.164 222.184C172.411 223.568 171.686 228.794 169.993 229.802C167.754 230.763 163.438 229.961 162.846 228.771C161.948 226.967 161.814 223.64 161.937 222.221C161.975 221.789 162.354 221.467 162.791 221.499Z" fill="white"/>
<path d="M162.804 221.319L172.178 222.004C172.261 222.01 172.33 222.071 172.344 222.153C172.703 224.164 171.599 229.057 170.087 229.957C167.843 230.922 163.356 230.205 162.682 228.851C161.905 227.289 161.581 224.218 161.756 222.206C161.802 221.674 162.268 221.28 162.804 221.319ZM162.777 221.68C162.441 221.655 162.148 221.903 162.119 222.237C161.95 224.19 162.267 227.199 163.01 228.691C163.581 229.839 167.856 230.522 169.92 229.636L169.994 229.588C171.239 228.703 172.235 224.403 172.016 222.436L172.006 222.354L162.777 221.68Z" fill="#253368"/>
<path d="M149.021 220.097C148.72 220.067 148.451 220.285 148.421 220.583C148.393 220.862 148.582 221.113 148.853 221.169L148.912 221.178L159.155 222.195C159.457 222.225 159.725 222.007 159.756 221.708C159.784 221.429 159.594 221.179 159.324 221.122L159.265 221.113L149.021 220.097Z" fill="#253368"/>
<path d="M162.19 221.257C161.888 221.24 161.629 221.468 161.611 221.768C161.594 222.047 161.793 222.29 162.066 222.336L162.125 222.343L172.193 222.937C172.495 222.955 172.755 222.726 172.773 222.427C172.789 222.147 172.59 221.904 172.317 221.858L172.258 221.852L162.19 221.257Z" fill="#253368"/>
<path fill-rule="evenodd" clip-rule="evenodd" d="M144.768 220.674C143.836 219.478 142.235 218.996 140.935 220.107C138.842 221.898 139.716 229.531 144.709 230.41C146.648 230.364 146.221 222.539 144.768 220.674Z" fill="#FFC999"/>
<path d="M142.572 221.116C142.437 221.047 142.272 221.1 142.203 221.234C142.134 221.367 142.187 221.531 142.322 221.599L142.386 221.635C142.426 221.658 142.478 221.69 142.538 221.729C142.706 221.84 142.875 221.972 143.032 222.123C143.63 222.698 143.883 223.366 143.626 224.139C143.56 224.339 143.471 224.43 143.264 224.53L143.127 224.591C142.684 224.782 142.48 224.965 142.39 225.411C142.252 226.1 142.541 226.656 143.086 227.066C143.346 227.262 143.604 227.385 143.785 227.446C143.928 227.494 144.084 227.419 144.133 227.277C144.182 227.135 144.105 226.98 143.962 226.932L143.914 226.913C143.884 226.901 143.844 226.884 143.798 226.862C143.668 226.8 143.538 226.724 143.418 226.633C143.025 226.337 142.836 225.975 142.928 225.518C142.971 225.304 143.038 225.229 143.277 225.12L143.412 225.061C143.8 224.89 144.016 224.703 144.147 224.309C144.478 223.31 144.148 222.44 143.414 221.733C143.231 221.557 143.036 221.405 142.841 221.277C142.723 221.199 142.629 221.145 142.572 221.116Z" fill="#DD936F"/>
<path d="M165.58 223.811C164.525 223.734 163.621 224.619 163.536 225.762C163.52 225.971 163.678 226.153 163.889 226.169C164.1 226.184 164.284 226.027 164.299 225.818C164.355 225.072 164.915 224.524 165.524 224.568C166.132 224.612 166.605 225.236 166.55 225.983C166.534 226.192 166.693 226.374 166.904 226.389C167.115 226.404 167.298 226.247 167.313 226.038C167.398 224.895 166.635 223.888 165.58 223.811Z" fill="#253368"/>
<path d="M153.88 222.956C152.825 222.879 151.921 223.764 151.836 224.908C151.82 225.117 151.979 225.299 152.19 225.314C152.401 225.329 152.584 225.173 152.6 224.964C152.655 224.217 153.215 223.669 153.824 223.713C154.432 223.758 154.904 224.381 154.849 225.128C154.834 225.337 154.992 225.519 155.203 225.534C155.414 225.549 155.598 225.392 155.613 225.183C155.697 224.04 154.935 223.033 153.88 222.956Z" fill="#253368"/>
<path fill-rule="evenodd" clip-rule="evenodd" d="M126.031 311.526C126.031 311.526 125.843 292.676 124.701 284.187C123.407 274.57 119.394 257.102 122.348 254.758C126.66 251.339 139.876 247.079 139.876 247.079C139.876 247.079 146.499 247.832 153.947 249.404C159.842 250.649 159.027 246.976 166.175 248.148C169.202 248.643 179.899 252.326 181.856 254.473C187.141 260.272 183.176 270.891 180.994 281.26C177.734 296.754 172.658 310.896 172.658 310.896C172.658 310.896 176.231 317.742 173.212 321.161C171.513 322.91 171.747 322.121 162.33 322.144C151.61 322.169 129.23 321.624 127.611 321.054C122.402 319.219 126.031 311.526 126.031 311.526Z" fill="#597EF7"/>
<path fill-rule="evenodd" clip-rule="evenodd" d="M163.53 245.293L155.925 249.539L163.62 257.412L166.6 248.353L163.53 245.293Z" fill="#597EF7"/>
<path fill-rule="evenodd" clip-rule="evenodd" d="M156.103 249.725L149.341 259.113L139.402 247.537L143.808 242.267L156.103 249.725Z" fill="#597EF7"/>
<path d="M156.564 250.47C156.354 250.495 156.205 250.685 156.231 250.893L156.259 251.141L156.319 251.72L156.378 252.357C156.442 253.082 156.506 253.911 156.566 254.843L156.616 255.656C156.986 261.958 157.035 269.763 156.571 278.948C155.905 292.141 154.248 306.556 151.382 322.054C151.344 322.26 151.482 322.458 151.69 322.496C151.898 322.534 152.097 322.397 152.135 322.191C155.007 306.66 156.668 292.212 157.336 278.986L157.394 277.792C157.806 268.897 157.733 261.328 157.355 255.201L157.33 254.794C157.269 253.856 157.205 253.021 157.14 252.29L157.081 251.646L156.995 250.832C156.993 250.82 156.992 250.809 156.991 250.8C156.967 250.61 156.805 250.469 156.616 250.467L156.564 250.47Z" fill="#253368"/>
<path d="M133.984 268.634L141.634 268.884C143.983 268.958 146.455 269.035 149.016 269.113C149.23 269.119 149.397 269.297 149.387 269.509L149.348 270.306C149.211 272.925 148.995 275.16 148.721 277.037C148.56 278.135 148.389 279.049 148.216 279.791L148.173 279.974C148.12 280.192 148.07 280.382 148.023 280.545L147.989 280.663C147.955 280.778 147.93 280.855 147.915 280.896C147.889 280.967 147.843 281.029 147.782 281.073L140.667 286.274C140.531 286.373 140.346 286.372 140.211 286.273L133.455 281.286C133.356 281.212 133.298 281.095 133.301 280.972L133.588 269.004C133.593 268.793 133.771 268.626 133.984 268.634ZM134.345 269.405L134.072 280.794L140.441 285.495L147.228 280.535L147.255 280.448C147.307 280.273 147.365 280.057 147.428 279.796C147.596 279.103 147.764 278.24 147.923 277.193L148.003 276.647C148.254 274.863 148.452 272.757 148.581 270.309L148.604 269.86L140.215 269.598L134.345 269.405Z" fill="#253368"/>
<path fill-rule="evenodd" clip-rule="evenodd" d="M156.015 258.61C155.945 259.282 155.429 259.78 154.864 259.722C154.299 259.663 153.897 259.071 153.968 258.399C154.039 257.726 154.554 257.228 155.119 257.287C155.684 257.345 156.086 257.937 156.015 258.61Z" fill="white"/>
<path fill-rule="evenodd" clip-rule="evenodd" d="M155.801 272.324C155.73 272.997 155.215 273.495 154.65 273.436C154.085 273.378 153.683 272.786 153.754 272.113C153.824 271.441 154.34 270.943 154.905 271.001C155.471 271.06 155.872 271.652 155.801 272.324Z" fill="white"/>
<path fill-rule="evenodd" clip-rule="evenodd" d="M155.37 285.041C155.3 285.713 154.783 286.211 154.218 286.153C153.653 286.094 153.252 285.502 153.322 284.83C153.394 284.157 153.909 283.659 154.474 283.718C155.039 283.776 155.44 284.368 155.37 285.041Z" fill="white"/>
<path fill-rule="evenodd" clip-rule="evenodd" d="M154.292 298.826C154.221 299.498 153.706 299.996 153.141 299.938C152.576 299.879 152.174 299.287 152.245 298.615C152.315 297.942 152.831 297.444 153.396 297.503C153.961 297.561 154.363 298.153 154.292 298.826Z" fill="white"/>
<path fill-rule="evenodd" clip-rule="evenodd" d="M152.196 314.155C152.125 314.828 151.609 315.326 151.044 315.267C150.479 315.209 150.077 314.617 150.149 313.944C150.219 313.272 150.734 312.774 151.3 312.832C151.865 312.891 152.266 313.483 152.196 314.155Z" fill="white"/>
<path d="M140.773 246.847C140.653 246.675 140.414 246.633 140.24 246.753C140.083 246.862 140.033 247.067 140.116 247.233L140.145 247.281L147.457 257.689C147.579 257.863 147.818 257.901 147.988 257.784L148.033 257.749L156.257 250.109C156.411 249.965 156.419 249.725 156.274 249.572C156.143 249.433 155.931 249.414 155.777 249.52L155.733 249.555L147.832 256.894L140.773 246.847Z" fill="#253368"/>
<path d="M167.027 249.044C166.847 248.974 166.645 249.049 166.554 249.213L166.531 249.26L163.044 258.123L156.557 249.55C156.442 249.398 156.233 249.356 156.069 249.444L156.021 249.474C155.867 249.589 155.825 249.796 155.914 249.958L155.945 250.006L162.844 259.124C163.013 259.347 163.352 259.317 163.484 259.084L163.507 259.034L167.245 249.536C167.322 249.34 167.224 249.12 167.027 249.044Z" fill="#253368"/>
<path d="M181.923 270.403C181.713 270.381 181.525 270.533 181.503 270.741C180.937 276.195 180.108 281.077 178.907 286.261L178.732 287.003C178.038 289.928 177.242 292.912 176.125 296.83L172.001 311.078C171.976 311.163 171.983 311.255 172.02 311.336C173.71 315.077 173.526 318.034 172.217 320.262C171.998 320.635 171.764 320.953 171.531 321.216L171.423 321.334L171.326 321.432L170.91 321.462C168.514 321.621 165.923 321.726 163.162 321.781L162.523 321.793C156.721 321.892 150.525 321.775 144.396 321.516L143.248 321.466C141.646 321.393 140.165 321.316 138.83 321.238L136.688 321.104C136.477 321.089 136.294 321.247 136.279 321.456C136.264 321.665 136.423 321.847 136.634 321.861L138.009 321.95L139.529 322.038C140.541 322.095 141.627 322.151 142.778 322.204L143.213 322.224C149.729 322.519 156.353 322.657 162.536 322.552C165.763 322.497 168.77 322.375 171.514 322.181C171.595 322.175 171.673 322.144 171.735 322.092C172.031 321.842 172.457 321.362 172.879 320.644C174.284 318.253 174.503 315.113 172.818 311.249L172.775 311.153L176.504 298.286L176.862 297.036C177.982 293.108 178.78 290.115 179.478 287.177C180.782 281.684 181.668 276.565 182.265 270.819C182.286 270.611 182.133 270.424 181.923 270.403Z" fill="#253368"/>
<path fill-rule="evenodd" clip-rule="evenodd" d="M132.476 322.237C127.285 322.518 122.776 318.732 122.201 313.611L116.99 267.223C116.224 260.401 121.4 254.343 128.315 253.969C135.149 253.6 140.922 258.937 141.026 265.72L141.741 312.389C141.821 317.605 137.73 321.953 132.476 322.237Z" fill="#FFC999"/>
<path fill-rule="evenodd" clip-rule="evenodd" d="M141.433 294.603L118.452 295.432L116.786 264.963C116.422 258.294 121.646 252.625 128.379 252.382C135.112 252.139 140.738 257.418 140.862 264.095L141.433 294.603Z" fill="#597EF7"/>
<path d="M140.884 264.21C140.69 264.214 140.533 264.359 140.511 264.545L140.508 264.597L141.044 294.237L118.438 295.052C118.244 295.059 118.089 295.207 118.071 295.393L118.069 295.445C118.076 295.637 118.226 295.791 118.414 295.809L118.466 295.811L141.447 294.982C141.638 294.976 141.792 294.831 141.813 294.647L141.816 294.596L141.274 264.583C141.27 264.373 141.096 264.207 140.884 264.21Z" fill="#253368"/>
<path fill-rule="evenodd" clip-rule="evenodd" d="M214.035 339.541L168.972 336.037L212.027 319.357L249.435 325.905L214.035 339.541Z" fill="#CCD7EE"/>
<path fill-rule="evenodd" clip-rule="evenodd" d="M215.468 336.335L182.74 333.789L213.243 321.675L241.178 326.431L215.468 336.335Z" fill="#4E5C93"/>
<path fill-rule="evenodd" clip-rule="evenodd" d="M169.18 338.311L168.965 336.052L214.925 339.268L214.348 341.742L169.18 338.311Z" fill="#4E5C93"/>
<path d="M219.574 323.207C219.535 323.124 219.443 323.081 219.357 323.101L219.32 323.114L194.616 334.346C194.52 334.39 194.478 334.503 194.522 334.598C194.561 334.681 194.653 334.724 194.739 334.704L194.776 334.691L219.48 323.459C219.576 323.415 219.618 323.302 219.574 323.207Z" fill="#CCD7EE"/>
<path d="M216.093 322.131C216.056 322.047 215.965 322.003 215.878 322.021L215.841 322.033L188.177 334.06C188.08 334.102 188.036 334.214 188.078 334.31C188.116 334.394 188.207 334.438 188.294 334.42L188.331 334.408L215.995 322.381C216.091 322.338 216.135 322.227 216.093 322.131Z" fill="#CCD7EE"/>
<path d="M220.14 325.469C220.1 325.386 220.007 325.345 219.921 325.366L219.884 325.379L199.166 335.148C199.07 335.193 199.03 335.306 199.075 335.4C199.115 335.483 199.207 335.524 199.294 335.503L199.33 335.49L220.049 325.722C220.144 325.677 220.185 325.564 220.14 325.469Z" fill="#CCD7EE"/>
<path d="M226.039 325.59C225.999 325.508 225.907 325.466 225.82 325.488L225.784 325.501L205.065 335.269C204.97 335.314 204.929 335.427 204.975 335.522C205.015 335.605 205.107 335.646 205.193 335.625L205.23 335.612L225.948 325.843C226.044 325.798 226.084 325.685 226.039 325.59Z" fill="#CCD7EE"/>
<path d="M231.517 326.08C231.477 325.997 231.385 325.956 231.298 325.977L231.262 325.99L210.543 335.759C210.448 335.804 210.407 335.917 210.453 336.012C210.492 336.094 210.585 336.136 210.671 336.114L210.708 336.101L231.426 326.333C231.522 326.288 231.562 326.175 231.517 326.08Z" fill="#CCD7EE"/>
<path d="M187.916 331.987C187.81 331.983 187.721 332.064 187.716 332.169C187.712 332.26 187.774 332.339 187.861 332.361L187.899 332.367L215.83 333.587C215.936 333.592 216.025 333.511 216.03 333.406C216.034 333.314 215.972 333.235 215.886 333.213L215.847 333.208L187.916 331.987Z" fill="#CCD7EE"/>
<path d="M193.881 329.363C193.776 329.359 193.686 329.44 193.681 329.544C193.677 329.636 193.74 329.715 193.826 329.737L193.864 329.742L221.796 330.963C221.901 330.968 221.991 330.886 221.995 330.782C221.999 330.69 221.937 330.611 221.851 330.589L221.812 330.584L193.881 329.363Z" fill="#CCD7EE"/>
<path d="M201.374 327.338C201.268 327.333 201.179 327.415 201.174 327.519C201.17 327.611 201.232 327.69 201.318 327.712L201.357 327.717L229.288 328.938C229.394 328.942 229.483 328.861 229.488 328.757C229.492 328.665 229.43 328.586 229.343 328.564L229.305 328.559L201.374 327.338Z" fill="#CCD7EE"/>
<path d="M206.216 323.141C206.11 323.137 206.021 323.218 206.016 323.323C206.012 323.414 206.074 323.494 206.161 323.515L206.199 323.521L234.13 324.741C234.236 324.746 234.325 324.665 234.33 324.56C234.334 324.468 234.272 324.389 234.185 324.367L234.147 324.362L206.216 323.141Z" fill="#CCD7EE"/>
<path fill-rule="evenodd" clip-rule="evenodd" d="M214.385 341.741L216.398 341.756L249.864 328.388L259.159 269.801L222.779 280.003L214.385 341.741Z" fill="#4E5C93"/>
<path fill-rule="evenodd" clip-rule="evenodd" d="M216.47 341.754L251.763 327.673C252.085 327.545 252.317 327.257 252.37 326.917L261.366 270.608C261.478 269.9 260.813 269.315 260.117 269.511L225.613 279.239C225.235 279.345 224.957 279.664 224.904 280.05L216.47 341.754Z" fill="#253368"/>
<path fill-rule="evenodd" clip-rule="evenodd" d="M188.741 323.628C187.859 325.995 185.487 327.483 182.951 327.259L131.563 322.731C125.865 322.229 121.809 317.018 122.765 311.427C123.723 305.826 129.301 302.229 134.855 303.634L184.844 316.273C188.088 317.092 189.902 320.516 188.741 323.628Z" fill="#FFC999"/>
<path fill-rule="evenodd" clip-rule="evenodd" d="M185.881 327.424C189.519 329.956 200.781 328.296 200.781 328.296L208.289 331.979C209.45 332.439 209.728 331.671 210.302 331.671C211.85 331.671 211.85 330.061 211.85 330.061C212.383 329.809 213.242 330.214 213.475 328.756C213.475 328.756 214.559 328.679 214.636 327.375C214.677 326.686 207.622 316.738 207.622 316.738L197.093 317.023C197.093 317.023 181.713 317.308 179.988 320.727C178.263 324.147 185.881 327.424 185.881 327.424Z" fill="#FFC999"/>
<path d="M201.575 321.965C201.425 321.912 201.26 321.989 201.206 322.138C201.158 322.272 201.217 322.418 201.338 322.485L201.381 322.504L205.649 324.015L210.874 329.651C210.908 329.684 210.96 329.743 211.016 329.82L211.059 329.881C211.205 330.1 211.267 330.31 211.22 330.482C211.139 330.772 210.74 331.034 209.883 331.204C209.727 331.235 209.626 331.386 209.657 331.54C209.688 331.695 209.84 331.796 209.997 331.765C211.045 331.557 211.626 331.176 211.776 330.634C211.877 330.271 211.769 329.909 211.541 329.566C211.46 329.444 211.379 329.347 211.32 329.285L211.288 329.253L206.025 323.576C206.004 323.553 205.979 323.534 205.952 323.519L205.91 323.5L201.575 321.965Z" fill="#DD936F"/>
<path d="M204.156 319.521C204.012 319.453 203.84 319.513 203.771 319.656C203.71 319.784 203.753 319.936 203.867 320.014L203.907 320.038L207.253 321.62L212.259 327.801L212.324 327.875L212.355 327.913C212.431 328.005 212.507 328.108 212.578 328.217C212.737 328.462 212.844 328.701 212.875 328.909C212.939 329.346 212.67 329.639 211.804 329.778C211.646 329.803 211.539 329.95 211.565 330.106C211.59 330.262 211.738 330.368 211.895 330.343C213.05 330.158 213.561 329.602 213.446 328.826C213.401 328.523 213.264 328.215 213.064 327.907C212.98 327.779 212.892 327.659 212.803 327.551L212.745 327.482C212.728 327.463 212.714 327.447 212.705 327.437L212.694 327.426L207.662 321.212C207.644 321.189 207.623 321.17 207.599 321.154L207.562 321.133L204.156 319.521Z" fill="#DD936F"/>
<path d="M198.897 324.562C198.741 324.533 198.59 324.636 198.562 324.792C198.536 324.932 198.618 325.067 198.749 325.113L198.794 325.125L203.817 326.029L209.262 331.277L209.263 331.286C209.265 331.319 209.262 331.352 209.253 331.384L209.236 331.43C209.154 331.592 208.883 331.708 208.297 331.692C207.81 331.68 206.85 331.249 205.601 330.513C205.345 330.362 205.079 330.201 204.807 330.029C204.216 329.658 203.618 329.26 203.043 328.862L202.755 328.661L202.294 328.333C202.254 328.303 202.206 328.284 202.155 328.279L201.868 328.251L201.575 328.227C201.42 328.214 201.253 328.202 201.075 328.191C199.722 328.103 198.217 328.074 196.65 328.135L195.567 328.185C190.994 328.402 188.322 328.145 185.209 326.695L185.001 326.596L184.894 326.568L159.022 324.858C158.862 324.848 158.725 324.967 158.714 325.125C158.705 325.267 158.801 325.391 158.937 325.422L158.983 325.429L184.801 327.136L184.965 327.213C188.112 328.68 190.811 328.965 195.287 328.77L196.673 328.707C198.218 328.646 199.703 328.676 201.037 328.762L201.373 328.785C201.479 328.793 201.581 328.801 201.677 328.809L202.016 328.84L202.421 329.128C202.514 329.193 202.611 329.261 202.713 329.332C203.294 329.734 203.899 330.137 204.498 330.513C204.775 330.687 205.045 330.852 205.306 331.005C206.646 331.794 207.658 332.248 208.282 332.264C209.07 332.285 209.555 332.079 209.753 331.684C209.847 331.496 209.858 331.303 209.823 331.126C209.816 331.091 209.808 331.062 209.801 331.042C209.791 331.013 209.777 330.987 209.759 330.963L209.729 330.929L204.156 325.559C204.125 325.529 204.088 325.507 204.048 325.493L204.007 325.482L198.897 324.562Z" fill="#DD936F"/>
<path d="M139.67 304.35C139.516 304.31 139.358 304.401 139.318 304.554C139.281 304.691 139.352 304.832 139.479 304.888L139.523 304.904L187.963 317.584L188.045 317.593L207.468 317.028L214.382 327.509L214.405 327.558C214.415 327.579 214.425 327.604 214.436 327.632L214.453 327.677C214.501 327.814 214.529 327.948 214.525 328.064C214.515 328.383 214.273 328.545 213.503 328.471C213.344 328.456 213.203 328.571 213.188 328.729C213.173 328.886 213.289 329.026 213.448 329.041C214.521 329.144 215.08 328.768 215.103 328.083C215.108 327.885 215.068 327.685 214.997 327.487C214.968 327.405 214.939 327.337 214.909 327.276L214.878 327.218L207.863 316.581C207.817 316.512 207.744 316.466 207.662 316.455L207.613 316.452L188.069 317.02L139.67 304.35Z" fill="#DD936F"/>
<path d="M192.998 293.565L177.499 295.416C177.289 295.441 177.139 295.63 177.164 295.838C177.187 296.029 177.35 296.17 177.538 296.173L177.59 296.17L193.09 294.318C193.3 294.293 193.45 294.104 193.424 293.896C193.401 293.705 193.239 293.565 193.05 293.562L192.998 293.565Z" fill="#253368"/>
<path d="M288.178 104.078C288.178 96.1064 281.657 89.5762 273.612 89.5762C265.567 89.5762 259.046 96.1064 259.046 104.078C259.046 107.233 260.736 111.309 263.45 114.313C266.141 117.291 266.907 122.303 266.907 126.3V127.867H280.317V126.313C280.317 122.316 281.083 117.313 283.76 114.326C286.483 111.291 288.178 106.853 288.178 104.078Z" fill="#FFE58F"/>
<path d="M285.78 104.039C285.78 97.3804 280.334 91.9245 273.612 91.9245C266.89 91.9245 261.445 97.3798 261.445 104.039C261.445 106.677 262.856 110.08 265.124 112.59C267.371 115.077 269.041 119.264 269.041 122.603V123.911H278.184V122.614C278.184 119.275 279.853 115.096 282.09 112.6C284.365 110.065 285.78 106.358 285.78 104.04V104.039Z" fill="#FAAD14"/>
<path d="M277.309 135.179H269.915C269.657 135.179 269.421 135.013 269.28 134.74L268.275 132.16H278.95L277.945 134.74C277.804 135.013 277.569 135.179 277.31 135.179H277.309Z" fill="#253368"/>
<path d="M279.105 121.905H268.119C267.303 121.905 266.642 122.561 266.642 123.37V131.806C266.642 132.615 267.303 133.271 268.119 133.271H279.105C279.921 133.271 280.582 132.615 280.582 131.806V123.37C280.582 122.561 279.921 121.905 279.105 121.905Z" fill="#597EF7"/>
<path d="M274.513 124.951C274.649 124.951 274.76 125.06 274.76 125.195C274.76 125.326 274.655 125.433 274.524 125.438L274.513 125.439H266.66C266.524 125.439 266.413 125.329 266.413 125.195C266.413 125.063 266.518 124.956 266.649 124.951L266.66 124.951H274.513Z" fill="white"/>
<path d="M274.513 130.003C274.649 130.003 274.76 130.113 274.76 130.247C274.76 130.379 274.655 130.486 274.524 130.491L274.513 130.491H266.66C266.524 130.491 266.413 130.382 266.413 130.247C266.413 130.116 266.518 130.009 266.649 130.004L266.66 130.003H274.513Z" fill="white"/>
<path d="M280.537 127.477C280.673 127.477 280.784 127.586 280.784 127.721C280.784 127.852 280.679 127.959 280.548 127.965L280.537 127.965H272.684C272.548 127.965 272.437 127.856 272.437 127.721C272.437 127.589 272.542 127.482 272.673 127.477L272.684 127.477H280.537Z" fill="white"/>
<path d="M274.605 98.2497L269.115 106.54C268.819 106.99 269.137 107.542 269.669 107.542H272.129L269.105 113.205C268.879 113.663 269.461 114.087 269.817 113.725L278.042 105.535C278.461 105.109 278.163 104.381 277.57 104.381H273.85L275.406 98.6113C275.528 98.1188 274.882 97.8299 274.605 98.2497Z" fill="white"/>
<path d="M324.418 74.7989C337.578 74.7989 348.247 64.2234 348.247 51.1777C348.247 38.132 337.578 27.5565 324.418 27.5565C311.257 27.5565 300.588 38.132 300.588 51.1777C300.588 64.2234 311.257 74.7989 324.418 74.7989Z" fill="#597EF7"/>
<path d="M324.418 73.1117C336.638 73.1117 346.545 63.2915 346.545 51.1777C346.545 39.0639 336.638 29.2437 324.418 29.2437C312.197 29.2437 302.29 39.0639 302.29 51.1777C302.29 63.2915 312.197 73.1117 324.418 73.1117Z" fill="#A3B5D6"/>
<path d="M324.418 72.3209C336.198 72.3209 345.747 62.8548 345.747 51.1777C345.747 39.5007 336.198 30.0346 324.418 30.0346C312.637 30.0346 303.088 39.5007 303.088 51.1777C303.088 62.8548 312.637 72.3209 324.418 72.3209Z" fill="white"/>
<path d="M324.418 37.7283C324.888 37.7283 325.269 38.106 325.269 38.5719V50.5592H323.567V38.5719C323.567 38.106 323.948 37.7283 324.418 37.7283Z" fill="#253368"/>
<path d="M333.083 51.1777C333.083 51.6436 332.702 52.0213 332.232 52.0213H324.418V50.3341H332.232C332.702 50.3341 333.083 50.7118 333.083 51.1777Z" fill="#253368"/>
<path d="M324.418 53.1286C325.505 53.1286 326.386 52.2552 326.386 51.1777C326.386 50.1003 325.505 49.2269 324.418 49.2269C323.331 49.2269 322.45 50.1003 322.45 51.1777C322.45 52.2552 323.331 53.1286 324.418 53.1286Z" fill="#FF7946"/>
<path d="M325.267 33.4618C325.267 32.9959 324.885 32.6182 324.415 32.6182C323.945 32.6182 323.564 32.9959 323.564 33.4618V35.149C323.564 35.6149 323.945 35.9926 324.415 35.9926C324.885 35.9926 325.267 35.6149 325.267 35.149V33.4618Z" fill="#E4EBF7"/>
<path d="M311.177 38.0551C311.509 37.7257 312.048 37.7257 312.38 38.0551L313.584 39.2482C313.916 39.5777 313.916 40.1118 313.584 40.4413C313.251 40.7707 312.713 40.7707 312.38 40.4413L311.177 39.2482C310.844 38.9187 310.844 38.3846 311.177 38.0551Z" fill="#E4EBF7"/>
<path d="M305.694 51.1798C305.694 50.7139 306.075 50.3362 306.545 50.3362H308.247C308.717 50.3362 309.098 50.7139 309.098 51.1798C309.098 51.6457 308.717 52.0234 308.247 52.0234H306.545C306.075 52.0234 305.694 51.6457 305.694 51.1798Z" fill="#E4EBF7"/>
<path d="M311.18 64.303C310.847 63.9736 310.847 63.4394 311.18 63.11L312.383 61.9169C312.715 61.5875 313.254 61.5875 313.587 61.9169C313.919 62.2464 313.919 62.7805 313.587 63.11L312.383 64.303C312.051 64.6325 311.512 64.6325 311.18 64.303Z" fill="#E4EBF7"/>
<path d="M323.569 68.8936C323.569 69.3595 323.95 69.7372 324.42 69.7372C324.89 69.7372 325.271 69.3595 325.271 68.8936V67.2064C325.271 66.7405 324.89 66.3628 324.42 66.3628C323.95 66.3628 323.569 66.7405 323.569 67.2064V68.8936Z" fill="#E4EBF7"/>
<path d="M337.658 64.2998C337.326 64.6292 336.787 64.6292 336.455 64.2998L335.251 63.1067C334.919 62.7773 334.919 62.2431 335.251 61.9137C335.584 61.5842 336.122 61.5842 336.455 61.9137L337.658 63.1067C337.991 63.4362 337.991 63.9703 337.658 64.2998Z" fill="#E4EBF7"/>
<path d="M343.141 51.1756C343.141 51.6415 342.76 52.0192 342.29 52.0192H340.588C340.118 52.0192 339.737 51.6415 339.737 51.1756C339.737 50.7097 340.118 50.332 340.588 50.332H342.29C342.76 50.332 343.141 50.7097 343.141 51.1756Z" fill="#E4EBF7"/>
<path d="M337.656 38.0529C337.988 38.3823 337.988 38.9165 337.656 39.2459L336.452 40.439C336.12 40.7684 335.581 40.7684 335.249 40.439C334.916 40.1095 334.916 39.5754 335.249 39.2459L336.452 38.0529C336.785 37.7234 337.323 37.7234 337.656 38.0529Z" fill="#E4EBF7"/>
<path fill-rule="evenodd" clip-rule="evenodd" d="M176.907 129.659C176.907 125.456 180.344 122.049 184.584 122.049C188.824 122.049 192.261 125.456 192.261 129.659V133.472H196.099V129.661C196.099 123.36 190.946 118.252 184.59 118.252H184.59C178.233 118.252 173.08 123.36 173.08 129.661V133.472H176.907V129.659Z" fill="#253368"/>
<path fill-rule="evenodd" clip-rule="evenodd" d="M201.143 156.53H168.036C167.245 156.53 166.597 155.888 166.597 155.103V134.176C166.597 133.391 167.245 132.749 168.036 132.749H201.143C201.935 132.749 202.583 133.391 202.583 134.176V155.103C202.583 155.888 201.935 156.53 201.143 156.53Z" fill="#597EF7"/>
<path fill-rule="evenodd" clip-rule="evenodd" d="M195.211 152.963H173.969C173.21 152.963 172.595 152.353 172.595 151.6V137.679C172.595 136.926 173.21 136.316 173.969 136.316H195.211C195.97 136.316 196.585 136.926 196.585 137.679V151.6C196.585 152.353 195.97 152.963 195.211 152.963Z" fill="#E4EBF7"/>
<path fill-rule="evenodd" clip-rule="evenodd" d="M182.729 146.484C182.729 145.465 183.562 144.639 184.59 144.639C185.617 144.639 186.451 145.465 186.451 146.484C186.451 147.503 185.617 148.328 184.59 148.328C183.562 148.328 182.729 147.503 182.729 146.484Z" fill="#253368"/>
<path fill-rule="evenodd" clip-rule="evenodd" d="M184.59 140.95C185.104 140.95 185.52 141.363 185.52 141.873V146.44H183.659V141.873C183.659 141.363 184.076 140.95 184.59 140.95Z" fill="#253368"/>
<path d="M229.685 37.8698V54.1904" stroke="white" stroke-width="6" stroke-linecap="round" stroke-linejoin="round"/>
<path d="M232.739 39.652H194.76C193.908 39.652 193.217 40.3365 193.217 41.1808V58.5219C193.217 59.3662 193.908 60.0506 194.76 60.0506H232.739C233.591 60.0506 234.281 59.3662 234.281 58.5219V41.1808C234.281 40.3365 233.591 39.652 232.739 39.652Z" fill="#597EF7"/>
<path d="M227.596 44.7479H210.182C209.898 44.7479 209.668 44.976 209.668 45.2574V46.2766C209.668 46.558 209.898 46.7862 210.182 46.7862H227.596C227.88 46.7862 228.111 46.558 228.111 46.2766V45.2574C228.111 44.976 227.88 44.7479 227.596 44.7479Z" fill="#2F54EB"/>
<path d="M219.5 52.9012H210.182C209.898 52.9012 209.668 53.1293 209.668 53.4107V54.4299C209.668 54.7113 209.898 54.9395 210.182 54.9395H219.5C219.784 54.9395 220.014 54.7113 220.014 54.4299V53.4107C220.014 53.1293 219.784 52.9012 219.5 52.9012Z" fill="#597EF7"/>
<path d="M227.596 48.8245H210.182C209.898 48.8245 209.668 49.0526 209.668 49.334V50.3532C209.668 50.6346 209.898 50.8628 210.182 50.8628H227.596C227.88 50.8628 228.111 50.6346 228.111 50.3532V49.334C228.111 49.0526 227.88 48.8245 227.596 48.8245Z" fill="#2F54EB"/>
<path d="M202.985 44.7479H196.816C196.248 44.7479 195.788 45.2042 195.788 45.767V51.882C195.788 52.4449 196.248 52.9012 196.816 52.9012H202.985C203.553 52.9012 204.013 52.4449 204.013 51.882V45.767C204.013 45.2042 203.553 44.7479 202.985 44.7479Z" fill="#2F54EB"/>
<path d="M206.616 44.7479V58.0187" stroke="white" stroke-width="6" stroke-linecap="round" stroke-linejoin="round"/>
<path d="M226.056 52.0883H188.077C187.225 52.0883 186.534 52.7728 186.534 53.6171V70.9582C186.534 71.8025 187.225 72.4869 188.077 72.4869H226.056C226.908 72.4869 227.598 71.8025 227.598 70.9582V53.6171C227.598 52.7728 226.908 52.0883 226.056 52.0883Z" fill="#E4EBF7"/>
<path d="M220.913 57.1842H203.499C203.215 57.1842 202.985 57.4123 202.985 57.6938V58.7129C202.985 58.9944 203.215 59.2225 203.499 59.2225H220.913C221.197 59.2225 221.427 58.9944 221.427 58.7129V57.6938C221.427 57.4123 221.197 57.1842 220.913 57.1842Z" fill="#597EF7"/>
<path d="M212.817 65.3375H203.499C203.215 65.3375 202.985 65.5656 202.985 65.8471V66.8662C202.985 67.1477 203.215 67.3758 203.499 67.3758H212.817C213.101 67.3758 213.331 67.1477 213.331 66.8662V65.8471C213.331 65.5656 213.101 65.3375 212.817 65.3375Z" fill="#597EF7"/>
<path d="M220.913 61.2608H203.499C203.215 61.2608 202.985 61.489 202.985 61.7704V62.7896C202.985 63.071 203.215 63.2992 203.499 63.2992H220.913C221.197 63.2992 221.427 63.071 221.427 62.7896V61.7704C221.427 61.489 221.197 61.2608 220.913 61.2608Z" fill="#597EF7"/>
<path d="M196.302 57.1842H190.133C189.565 57.1842 189.105 57.6405 189.105 58.2033V64.3183C189.105 64.8812 189.565 65.3375 190.133 65.3375H196.302C196.87 65.3375 197.33 64.8812 197.33 64.3183V58.2033C197.33 57.6405 196.87 57.1842 196.302 57.1842Z" fill="#597EF7"/>
<path d="M199.932 57.1842V70.455" stroke="white" stroke-width="6" stroke-linecap="round" stroke-linejoin="round"/>
</svg>
